<svg xmlns="http://www.w3.org/2000/svg" viewBox="0 0 512 512" width="512" height="512"><path d="M0 512h512V0H0v512m460-149c13.92 1.44 24.78-1.92 39 0s6.76 18.16 9 30-1.29 25.87-16 23-25.17 1.26-39 0-26.55.59-40 0-25.78.26-39 0-25.86.11-39 0-25.86.04-39 0-26.87 0-40 0-25.91-.05-39 0-25.9-.12-39 0-25.81-.28-39 0-25.61-.63-39 0-26.27-1.37-40 0-24.52-3.1-39 0-19.79-10.02-17-22-5.84-28.06 8.02-30.97c13.87-2.92 26.25 2.13 39.98-.03-5.89-11.11-10.81-20.99-16.92-32.08-6.12-11.08-11.34-20.8-16.06-32.94-4.71-12.15-8.66-24.47-11.01-37.99S4.12 228.56 5 214s1.71-29.51 5.99-43.01c4.28-13.49 6.32-23.16 12.99-36.01 6.66-12.86 25.85-8.14 41.02-7.98s33.28-1.72 50 0 11.65-18.14 21.77-27.23S167.8 97.5 182 96s33.93.42 49 0 33.91-.39 49 0 34.71-1.46 49 0 35.09-5 45.75 3.25S379.53 128.33 396 127s35.06-.22 50 0 34.76-5.22 41.77 7.23c7.02 12.45 8.52 22.71 13.01 35.99s5.16 28.31 6.22 42.78-.72 32.54-2.93 46.07-6.15 25.96-10.84 38.16-9.79 21.88-16 33S466.04 351.86 460 363Z" fill="none" stroke="#000" stroke-opacity=".01" stroke-width=".3"/><path d="M460 363c6.04-11.14 11.02-21.65 17.23-32.77s11.31-20.8 16-33 8.63-24.63 10.84-38.16 3.99-31.6 2.93-46.07-1.73-29.5-6.22-42.78-5.99-23.54-13.01-35.99c-7.01-12.45-26.83-7.01-41.77-7.23s-33.53-1.33-50 0-10.59-19.5-21.25-27.75S343.29 97.46 329 96s-33.91.39-49 0-33.93-.42-49 0-34.8-1.5-49 0-35.11-5.32-45.23 3.77S131.72 128.72 115 127s-34.83.16-50 0-34.36-4.88-41.02 7.98c-6.67 12.85-8.71 22.52-12.99 36.01C6.71 184.49 5.88 199.44 5 214s.66 32.47 3.01 45.99 6.3 25.84 11.01 37.99c4.72 12.14 9.94 21.86 16.06 32.94C41.19 342.01 46.11 351.89 52 363c-13.73 2.16-26.11-2.89-39.98.03C-1.84 365.94 6.79 382.02 4 394s2.52 25.1 17 22 25.27 1.37 39 0 26.61.63 40 0 25.81.28 39 0 25.9.12 39 0 25.91.05 39 0 25.87 0 39 0 26.86-.04 40 0 25.86-.11 39 0 25.78-.26 39 0 25.55-.59 39 0 26.17-1.26 40 0 24.29-2.87 39 0 18.24-11.16 16-23 5.22-28.08-9-30-25.08 1.44-39 0M164 111c-1.02 32.53 1.37 73.29 0 105s.32 62.93 20.25 85.75C204.19 324.56 226.94 336 256 336s51.14-11.15 71.25-33.75c20.11-22.61 22.17-53.4 20.75-85.25s1.07-73.28 0-106h17c3.66 11.56 8.31 20.28 11.78 32.22 3.46 11.95 5.64 24.93 7.22 37.78s.94 29.09.02 42.02c-.91 12.94-3.4 26.15-6.95 38.05-3.54 11.91-6.73 21.33-11.39 32.61s-10.04 18.53-14.99 30.02c-4.94 11.48-11.72 14.67-16 28-4.27 13.32-19.61 12.09-33.69 11.3s-30.87.2-45 0-30.32-.3-44 0-30.05 2.8-34.77-10.23c-4.73-13.03-9.93-17.55-15.15-28.85s-10.23-18.59-15.39-29.61c-5.15-11.03-8.16-20.45-11.67-32.33-3.5-11.89-6.02-25.06-7.02-37.98s-1.61-29.13 0-42c1.61-12.88 3.46-25.99 6.99-38.01 3.54-12.02 8.13-21.39 12.01-32.99h17m158 40c-2.42.23-5.91 1-9 1-7.65 0-15.36.31-23 0-1.84-.07-3.81-.83-5-1-36.04-1.44-68.84-15.91-106-13v-27h154v40h-11M51 263c0 11.33 3.94 24.19 9.31 33.7 5.36 9.5 10.7 17.5 19.44 24.55 8.74 7.04 16.59 11.88 27.47 15.53 10.89 3.64 26.88 5.62 38.78 3.22s13.7 14.6 19 23c-14.21-.56-31.06.75-45 0s-33.1 1.42-46 0-12.37-17.79-19.31-26.69c-6.93-8.91-9.62-19.4-15.61-29.39-6-9.98-9.34-21.59-12.86-33.14S20.31 246.68 20 234c-.67-6.92-.66-15.15 0-22 0-9.42 2.16-20.66 3.78-29.22s5.39-19.02 7.53-26.47c2.13-7.46 8.45-22.48 18.69-15.31 4.04 2.83-.1 13.61 1 19s-.52 14.84 0 21-.22 13.45 0 20-.1 14.29 0 21-.04 13.2 0 20 0 14.15 0 21m27-87c-2.27-.06-4.39-.71-6-1-1.99-.17-4.01.13-6 0v-34h54c-.96 7.62-3.72 12.7-4.33 20.67s-2.24 15.14-11.74 14.26-16.64.81-25.93.07m368-35v34c-15.79.88-32.26 1.93-48 0 .02-11.85-3.83-22.69-6-34h54m46 72c.17 1.2.93 3.19 1 5 .48 11.96-1.22 26.6-3 38s-5.65 22.37-8.98 33.02c-3.32 10.65-8.4 17.84-13.32 27.68-4.93 9.83-9.5 17.24-14.62 27.38S444.98 365.14 431 363s-28.01 1.12-42 0-28.01.84-42 0c5.39-7.83 6.5-25.01 18.07-23.07 11.58 1.94 28.18.85 38.95-2.91 10.78-3.75 18.94-8.31 27.68-15.32 8.74-7.02 13.87-15.03 19.6-24.4 5.73-9.36 9.54-22.94 9.7-34.3.13-6.72-.1-13.26 0-20s-.13-14.31 0-21-.26-13.48 0-20-.54-14.83 0-21-1.24-14.71 0-20-3.09-17.14 1-20c10.18-7.12 16.51 7.73 18.78 15.22 2.26 7.5 5.61 17.79 7.55 26.45 1.93 8.67 3.29 20.78 3.67 30.33m-159-47c-1.17 42.91 9.87 104.1-24.75 134.25-34.63 30.14-80.21 27.8-111-6.5-30.8-34.3-14.03-96.92-18.25-140.75 52.34-.15 100.52 20.83 154 13m113 24c-2.23 31.53 6.12 71.47-7.77 99.23S396.38 327.32 367 325c22.89-40.57 35.52-85.75 33-134 15.3-.47 31.1 1.06 46-1m-334 1c-2.99 48.36 10.25 93.35 33 134-29.27 2.26-56.61-7.67-70.92-35.08C59.76 262.51 68.21 222.33 66 191h46m381 187v23H19v-23z" fill="none" stroke="#000" stroke-width=".3"/><path d="M164 111h-17c-3.88 11.6-8.47 20.97-12.01 32.99-3.53 12.02-5.38 25.13-6.99 38.01-1.61 12.87-1 29.08 0 42s3.52 26.09 7.02 37.98c3.51 11.88 6.52 21.3 11.67 32.33 5.16 11.02 10.17 18.31 15.39 29.61s10.42 15.82 15.15 28.85C181.95 365.8 198.32 363.3 212 363s29.87-.2 44 0 30.92-.79 45 0 29.42 2.02 33.69-11.3c4.28-13.33 11.06-16.52 16-28 4.95-11.49 10.33-18.74 14.99-30.02s7.85-20.7 11.39-32.61c3.55-11.9 6.04-25.11 6.95-38.05.92-12.93 1.56-29.17-.02-42.02s-3.76-25.83-7.22-37.78c-3.47-11.94-8.12-20.66-11.78-32.22h-17c1.07 32.72-1.42 74.15 0 106s-.64 62.64-20.75 85.25C307.14 324.85 285.06 336 256 336s-51.81-11.44-71.75-34.25C164.32 278.93 162.63 247.71 164 216s-1.02-72.47 0-105Z" fill="none" stroke="#EFEFEF" stroke-width=".3"/><path d="M285 151c1.84.07 3.82.83 5 1 7.64.31 15.35 0 23 0 2.42-.23 5.91-1 9-1h11v-40H179v27c37.16-2.91 69.96 11.56 106 13Z" fill="none" stroke="#DDD" stroke-width=".3"/><path d="M20 212v22c.31 12.68 2.7 28.23 6.22 39.78s6.86 23.16 12.86 33.14c5.99 9.99 8.68 20.48 15.61 29.39 6.94 8.9 6.41 25.27 19.31 26.69s32.06-.75 46 0 30.79-.56 45 0c-5.3-8.4-7.1-25.4-19-23s-27.89.42-38.78-3.22c-10.88-3.65-18.73-8.49-27.47-15.53-8.74-7.05-14.08-15.05-19.44-24.55C54.94 287.19 51 274.33 51 263c-3.83-39.62.79-81.59-1-122-10.24-7.17-16.56 7.85-18.69 15.31-2.14 7.45-5.91 17.91-7.53 26.47S20 202.58 20 212Z" fill="none" stroke="#E6E6E6" stroke-width=".3"/><path d="M51 263c0-6.85.04-14.2 0-21s.1-13.29 0-20 .22-14.45 0-21 .52-13.84 0-20 1.1-15.61 0-21 3.04-16.17-1-19c1.79 40.41-2.83 82.38 1 122Z" fill="none" stroke="#6A6A6A" stroke-width=".3"/><path d="M72 175c1.99.17 4.66.85 6 1 9.29.74 16.43-.95 25.93-.07s11.13-6.29 11.74-14.26 3.37-13.05 4.33-20.67H66v34c1.99.13 4.01-.17 6 0Zm374-34h-54c2.17 11.31 6.02 22.15 6 34 15.74 1.93 32.21.88 48 0z" fill="none" stroke="#D9D9D9" stroke-width=".3"/><path d="M461 263c4.77-39.47-1.49-81.7 1-122-4.09 2.86.24 14.71-1 20s.54 13.83 0 20 .26 14.48 0 21 .13 13.31 0 20 .1 14.26 0 21 .13 13.28 0 20Z" fill="none" stroke="#6A6A6A" stroke-width=".3"/><path d="M461 263c-.16 11.36-3.97 24.94-9.7 34.3-5.73 9.37-10.86 17.38-19.6 24.4-8.74 7.01-16.9 11.57-27.68 15.32-10.77 3.76-27.37 4.85-38.95 2.91-11.57-1.94-12.68 15.24-18.07 23.07 13.99.84 28.01-1.12 42 0s28.02-2.14 42 0 16.96-8.78 22.08-18.92 9.69-17.55 14.62-27.38c4.92-9.84 10-17.03 13.32-27.68 3.33-10.65 7.2-21.62 8.98-33.02s3.48-26.04 3-38c-.17-1.2-.93-3.19-1-5-.38-9.55-1.74-21.66-3.67-30.33-1.94-8.66-5.29-18.95-7.55-26.45-2.27-7.49-8.6-22.34-18.78-15.22-2.49 40.3 3.77 82.53-1 122Z" fill="none" stroke="#E6E6E6" stroke-width=".3"/><path d="M290 152c-1.18-.17-3.16-.93-5-1 1.19.17 3.16.93 5 1Z" fill="none" stroke="#6A6A6A" stroke-width=".3"/><path d="M313 152c3.09 0 6.58-.77 9-1-3.09 0-6.58.77-9 1Z" fill="none" stroke="#6F6F6F" stroke-width=".3"/><path d="M333 166c-53.48 7.83-101.66-13.15-154-13 4.22 43.83-12.55 106.45 18.25 140.75 30.79 34.3 76.37 36.64 111 6.5C342.87 270.1 331.83 208.91 333 166m-60 16c24.06 5.6 29.54 42.23 21.22 61.22C285.91 262.21 264 284.95 240 278s-30.63-39.64-22.22-60.22c8.4-20.59 30.16-41.61 55.22-35.78Z" fill="none" stroke="#3E231F" stroke-width=".3"/><path d="M78 176c-1.34-.15-4.01-.83-6-1 1.61.29 3.73.94 6 1Z" fill="none" stroke="#696969" stroke-width=".3"/><path d="M273 182c-25.06-5.83-46.82 15.19-55.22 35.78C209.37 238.36 216 271.05 240 278s45.91-15.79 54.22-34.78c8.32-18.99 2.84-55.62-21.22-61.22m-14 16c-.97 11.13-3.05 21.5-11.25 29.75-8.2 8.26-7.33 21.5-10.75 31.25-17.78-20.29-3.42-55.66 22-61m16 4c17.88 20.52 2.66 54.18-22 61 .21-11.25 2.46-22.1 10.75-30.25 8.29-8.14 7.3-21.54 11.25-30.75Z" fill="none" stroke="#000" stroke-width=".3"/><path d="M446 190c-14.9 2.06-30.7.53-46 1 2.52 48.25-10.11 93.43-33 134 29.38 2.32 57.34-8.01 71.23-35.77s5.54-67.7 7.77-99.23Zm-334 1H66c2.21 31.33-6.24 71.51 8.08 98.92C88.39 317.33 115.73 327.26 145 325c-22.75-40.65-35.99-85.64-33-134Z" fill="none" stroke="#3E231F" stroke-width=".3"/><path d="M259 198c-25.42 5.34-39.78 40.71-22 61 3.42-9.75 2.55-22.99 10.75-31.25 8.2-8.25 10.28-18.62 11.25-29.75Zm16 4c-3.95 9.21-2.96 22.61-11.25 30.75-8.29 8.15-10.54 19-10.75 30.25 24.66-6.82 39.88-40.48 22-61Z" fill="none" stroke="#E76E03" stroke-width=".3"/><path d="M20 234v-22c-.66 6.85-.67 15.08 0 22Z" fill="none" stroke="#737373" stroke-width=".3"/><path d="M493 218c-.07-1.81-.83-3.8-1-5 .07 1.81.83 3.8 1 5Z" fill="none" stroke="#6E6E6E" stroke-width=".3"/><path d="M493 378H19v23h474z" fill="none" stroke="#9B6A3B" stroke-width=".3"/><path d="M0 512h512V0H0v512m460-149c13.92 1.44 24.78-1.92 39 0s6.76 18.16 9 30-1.29 25.87-16 23-25.17 1.26-39 0-26.55.59-40 0-25.78.26-39 0-25.86.11-39 0-25.86.04-39 0-26.87 0-40 0-25.91-.05-39 0-25.9-.12-39 0-25.81-.28-39 0-25.61-.63-39 0-26.27-1.37-40 0-24.52-3.1-39 0-19.79-10.02-17-22-5.84-28.06 8.02-30.97c13.87-2.92 26.25 2.13 39.98-.03-5.89-11.11-10.81-20.99-16.92-32.08-6.12-11.08-11.34-20.8-16.06-32.94-4.71-12.15-8.66-24.47-11.01-37.99S4.12 228.56 5 214s1.71-29.51 5.99-43.01c4.28-13.49 6.32-23.16 12.99-36.01 6.66-12.86 25.85-8.14 41.02-7.98s33.28-1.72 50 0 11.65-18.14 21.77-27.23S167.8 97.5 182 96s33.93.42 49 0 33.91-.39 49 0 34.71-1.46 49 0 35.09-5 45.75 3.25S379.53 128.33 396 127s35.06-.22 50 0 34.76-5.22 41.77 7.23c7.02 12.45 8.52 22.71 13.01 35.99s5.16 28.31 6.22 42.78-.72 32.54-2.93 46.07-6.15 25.96-10.84 38.16-9.79 21.88-16 33S466.04 351.86 460 363Z" fill-opacity=".01" stroke="None"/><path d="M460 363c6.04-11.14 11.02-21.65 17.23-32.77s11.31-20.8 16-33 8.63-24.63 10.84-38.16 3.99-31.6 2.93-46.07-1.73-29.5-6.22-42.78-5.99-23.54-13.01-35.99c-7.01-12.45-26.83-7.01-41.77-7.23s-33.53-1.33-50 0-10.59-19.5-21.25-27.75S343.29 97.46 329 96s-33.91.39-49 0-33.93-.42-49 0-34.8-1.5-49 0-35.11-5.32-45.23 3.77S131.72 128.72 115 127s-34.83.16-50 0-34.36-4.88-41.02 7.98c-6.67 12.85-8.71 22.52-12.99 36.01C6.71 184.49 5.88 199.44 5 214s.66 32.47 3.01 45.99 6.3 25.84 11.01 37.99c4.72 12.14 9.94 21.86 16.06 32.94C41.19 342.01 46.11 351.89 52 363c-13.73 2.16-26.11-2.89-39.98.03C-1.84 365.94 6.79 382.02 4 394s2.52 25.1 17 22 25.27 1.37 39 0 26.61.63 40 0 25.81.28 39 0 25.9.12 39 0 25.91.05 39 0 25.87 0 39 0 26.86-.04 40 0 25.86-.11 39 0 25.78-.26 39 0 25.55-.59 39 0 26.17-1.26 40 0 24.29-2.87 39 0 18.24-11.16 16-23 5.22-28.08-9-30-25.08 1.44-39 0M164 111c-1.02 32.53 1.37 73.29 0 105s.32 62.93 20.25 85.75C204.19 324.56 226.94 336 256 336s51.14-11.15 71.25-33.75c20.11-22.61 22.17-53.4 20.75-85.25s1.07-73.28 0-106h17c3.66 11.56 8.31 20.28 11.78 32.22 3.46 11.95 5.64 24.93 7.22 37.78s.94 29.09.02 42.02c-.91 12.94-3.4 26.15-6.95 38.05-3.54 11.91-6.73 21.33-11.39 32.61s-10.04 18.53-14.99 30.02c-4.94 11.48-11.72 14.67-16 28-4.27 13.32-19.61 12.09-33.69 11.3s-30.87.2-45 0-30.32-.3-44 0-30.05 2.8-34.77-10.23c-4.73-13.03-9.93-17.55-15.15-28.85s-10.23-18.59-15.39-29.61c-5.15-11.03-8.16-20.45-11.67-32.33-3.5-11.89-6.02-25.06-7.02-37.98s-1.61-29.13 0-42c1.61-12.88 3.46-25.99 6.99-38.01 3.54-12.02 8.13-21.39 12.01-32.99h17m158 40c-2.42.23-5.91 1-9 1-7.65 0-15.36.31-23 0-1.84-.07-3.81-.83-5-1-36.04-1.44-68.84-15.91-106-13v-27h154v40h-11M51 263c0 11.33 3.94 24.19 9.31 33.7 5.36 9.5 10.7 17.5 19.44 24.55 8.74 7.04 16.59 11.88 27.47 15.53 10.89 3.64 26.88 5.62 38.78 3.22s13.7 14.6 19 23c-14.21-.56-31.06.75-45 0s-33.1 1.42-46 0-12.37-17.79-19.31-26.69c-6.93-8.91-9.62-19.4-15.61-29.39-6-9.98-9.34-21.59-12.86-33.14S20.31 246.68 20 234c-.67-6.92-.66-15.15 0-22 0-9.42 2.16-20.66 3.78-29.22s5.39-19.02 7.53-26.47c2.13-7.46 8.45-22.48 18.69-15.31 4.04 2.83-.1 13.61 1 19s-.52 14.84 0 21-.22 13.45 0 20-.1 14.29 0 21-.04 13.2 0 20 0 14.15 0 21m27-87c-2.27-.06-4.39-.71-6-1-1.99-.17-4.01.13-6 0v-34h54c-.96 7.62-3.72 12.7-4.33 20.67s-2.24 15.14-11.74 14.26-16.64.81-25.93.07m368-35v34c-15.79.88-32.26 1.93-48 0 .02-11.85-3.83-22.69-6-34h54m46 72c.17 1.2.93 3.19 1 5 .48 11.96-1.22 26.6-3 38s-5.65 22.37-8.98 33.02c-3.32 10.65-8.4 17.84-13.32 27.68-4.93 9.83-9.5 17.24-14.62 27.38S444.98 365.14 431 363s-28.01 1.12-42 0-28.01.84-42 0c5.39-7.83 6.5-25.01 18.07-23.07 11.58 1.94 28.18.85 38.95-2.91 10.78-3.75 18.94-8.31 27.68-15.32 8.74-7.02 13.87-15.03 19.6-24.4 5.73-9.36 9.54-22.94 9.7-34.3.13-6.72-.1-13.26 0-20s-.13-14.31 0-21-.26-13.48 0-20-.54-14.83 0-21-1.24-14.71 0-20-3.09-17.14 1-20c10.18-7.12 16.51 7.73 18.78 15.22 2.26 7.5 5.61 17.79 7.55 26.45 1.93 8.67 3.29 20.78 3.67 30.33m-159-47c-1.17 42.91 9.87 104.1-24.75 134.25-34.63 30.14-80.21 27.8-111-6.5-30.8-34.3-14.03-96.92-18.25-140.75 52.34-.15 100.52 20.83 154 13m113 24c-2.23 31.53 6.12 71.47-7.77 99.23S396.38 327.32 367 325c22.89-40.57 35.52-85.75 33-134 15.3-.47 31.1 1.06 46-1m-334 1c-2.99 48.36 10.25 93.35 33 134-29.27 2.26-56.61-7.67-70.92-35.08C59.76 262.51 68.21 222.33 66 191h46m381 187v23H19v-23z" stroke="None"/><path d="M164 111h-17c-3.88 11.6-8.47 20.97-12.01 32.99-3.53 12.02-5.38 25.13-6.99 38.01-1.61 12.87-1 29.08 0 42s3.52 26.09 7.02 37.98c3.51 11.88 6.52 21.3 11.67 32.33 5.16 11.02 10.17 18.31 15.39 29.61s10.42 15.82 15.15 28.85C181.95 365.8 198.32 363.3 212 363s29.87-.2 44 0 30.92-.79 45 0 29.42 2.02 33.69-11.3c4.28-13.33 11.06-16.52 16-28 4.95-11.49 10.33-18.74 14.99-30.02s7.85-20.7 11.39-32.61c3.55-11.9 6.04-25.11 6.95-38.05.92-12.93 1.56-29.17-.02-42.02s-3.76-25.83-7.22-37.78c-3.47-11.94-8.12-20.66-11.78-32.22h-17c1.07 32.72-1.42 74.15 0 106s-.64 62.64-20.75 85.25C307.14 324.85 285.06 336 256 336s-51.81-11.44-71.75-34.25C164.32 278.93 162.63 247.71 164 216s-1.02-72.47 0-105Z" fill="#EFEFEF" stroke="None"/><path d="M285 151c1.84.07 3.82.83 5 1 7.64.31 15.35 0 23 0 2.42-.23 5.91-1 9-1h11v-40H179v27c37.16-2.91 69.96 11.56 106 13Z" fill="#DDD" stroke="None"/><path d="M20 212v22c.31 12.68 2.7 28.23 6.22 39.78s6.86 23.16 12.86 33.14c5.99 9.99 8.68 20.48 15.61 29.39 6.94 8.9 6.41 25.27 19.31 26.69s32.06-.75 46 0 30.79-.56 45 0c-5.3-8.4-7.1-25.4-19-23s-27.89.42-38.78-3.22c-10.88-3.65-18.73-8.49-27.47-15.53-8.74-7.05-14.08-15.05-19.44-24.55C54.94 287.19 51 274.33 51 263c-3.83-39.62.79-81.59-1-122-10.24-7.17-16.56 7.85-18.69 15.31-2.14 7.45-5.91 17.91-7.53 26.47S20 202.58 20 212Z" fill="#E6E6E6" stroke="None"/><path d="M51 263c0-6.85.04-14.2 0-21s.1-13.29 0-20 .22-14.45 0-21 .52-13.84 0-20 1.1-15.61 0-21 3.04-16.17-1-19c1.79 40.41-2.83 82.38 1 122Z" fill="#6A6A6A" stroke="None"/><path d="M72 175c1.99.17 4.66.85 6 1 9.29.74 16.43-.95 25.93-.07s11.13-6.29 11.74-14.26 3.37-13.05 4.33-20.67H66v34c1.99.13 4.01-.17 6 0Zm374-34h-54c2.17 11.31 6.02 22.15 6 34 15.74 1.93 32.21.88 48 0z" fill="#D9D9D9" stroke="None"/><path d="M461 263c4.77-39.47-1.49-81.7 1-122-4.09 2.86.24 14.71-1 20s.54 13.83 0 20 .26 14.48 0 21 .13 13.31 0 20 .1 14.26 0 21 .13 13.28 0 20Z" fill="#6A6A6A" stroke="None"/><path d="M461 263c-.16 11.36-3.97 24.94-9.7 34.3-5.73 9.37-10.86 17.38-19.6 24.4-8.74 7.01-16.9 11.57-27.68 15.32-10.77 3.76-27.37 4.85-38.95 2.91-11.57-1.94-12.68 15.24-18.07 23.07 13.99.84 28.01-1.12 42 0s28.02-2.14 42 0 16.96-8.78 22.08-18.92 9.69-17.55 14.62-27.38c4.92-9.84 10-17.03 13.32-27.68 3.33-10.65 7.2-21.62 8.98-33.02s3.48-26.04 3-38c-.17-1.2-.93-3.19-1-5-.38-9.55-1.74-21.66-3.67-30.33-1.94-8.66-5.29-18.95-7.55-26.45-2.27-7.49-8.6-22.34-18.78-15.22-2.49 40.3 3.77 82.53-1 122Z" fill="#E6E6E6" stroke="None"/><path d="M290 152c-1.18-.17-3.16-.93-5-1 1.19.17 3.16.93 5 1Z" fill="#6A6A6A" stroke="None"/><path d="M313 152c3.09 0 6.58-.77 9-1-3.09 0-6.58.77-9 1Z" fill="#6F6F6F" stroke="None"/><path d="M333 166c-53.48 7.83-101.66-13.15-154-13 4.22 43.83-12.55 106.45 18.25 140.75 30.79 34.3 76.37 36.64 111 6.5C342.87 270.1 331.83 208.91 333 166m-60 16c24.06 5.6 29.54 42.23 21.22 61.22C285.91 262.21 264 284.95 240 278s-30.63-39.64-22.22-60.22c8.4-20.59 30.16-41.61 55.22-35.78Z" fill="#3E231F" stroke="None"/><path d="M78 176c-1.34-.15-4.01-.83-6-1 1.61.29 3.73.94 6 1Z" fill="#696969" stroke="None"/><path d="M273 182c-25.06-5.83-46.82 15.19-55.22 35.78C209.37 238.36 216 271.05 240 278s45.91-15.79 54.22-34.78c8.32-18.99 2.84-55.62-21.22-61.22m-14 16c-.97 11.13-3.05 21.5-11.25 29.75-8.2 8.26-7.33 21.5-10.75 31.25-17.78-20.29-3.42-55.66 22-61m16 4c17.88 20.52 2.66 54.18-22 61 .21-11.25 2.46-22.1 10.75-30.25 8.29-8.14 7.3-21.54 11.25-30.75Z" stroke="None"/><path d="M446 190c-14.9 2.06-30.7.53-46 1 2.52 48.25-10.11 93.43-33 134 29.38 2.32 57.34-8.01 71.23-35.77s5.54-67.7 7.77-99.23Zm-334 1H66c2.21 31.33-6.24 71.51 8.08 98.92C88.39 317.33 115.73 327.26 145 325c-22.75-40.65-35.99-85.64-33-134Z" fill="#3E231F" stroke="None"/><path d="M259 198c-25.42 5.34-39.78 40.71-22 61 3.42-9.75 2.55-22.99 10.75-31.25 8.2-8.25 10.28-18.62 11.25-29.75Zm16 4c-3.95 9.21-2.96 22.61-11.25 30.75-8.29 8.15-10.54 19-10.75 30.25 24.66-6.82 39.88-40.48 22-61Z" fill="#E76E03" stroke="None"/><path d="M20 234v-22c-.66 6.85-.67 15.08 0 22Z" fill="#737373" stroke="None"/><path d="M493 218c-.07-1.81-.83-3.8-1-5 .07 1.81.83 3.8 1 5Z" fill="#6E6E6E" stroke="None"/><path d="M493 378H19v23h474z" fill="#9B6A3B" stroke="None"/></svg>