<svg xmlns="http://www.w3.org/2000/svg" width="512" height="512" style="shape-rendering:geometricPrecision;text-rendering:geometricPrecision;image-rendering:optimizeQuality;fill-rule:evenodd;clip-rule:evenodd"><path style="opacity:.946" fill="#030000" d="M241.5 4.5q149.641-2.57 230.5 122 61.847 110.173 16 228Q432.684 476.292 301.5 504 157.848 525.46 62 417.5q-81.547-103.728-48-232Q49.133 73.866 155.5 25q41.51-17.38 86-20.5"/><path style="opacity:1" fill="#de4b4b" d="M230.5 16.5q141.558-8.58 224.5 105 72.55 114.076 18 238Q413.628 475.318 284.5 495 157.668 506.74 73 412.5q-77.162-96.168-50-217Q57.325 77.177 171.5 31q28.95-10.363 59-14.5"/><path style="opacity:1" fill="#060404" d="M240.5 52.5q104.173-3.765 172.5 74 67.228 85.784 37 191Q416.148 417.851 315.5 451 193.273 483.386 105 393.5q-77.116-91.504-41-206Q100.315 94.685 194.5 62q22.767-6.803 46-9.5"/><path style="opacity:1" fill="#fdfdfd" d="M238.5 63.5q70.683-3.96 129 35.5a47 47 0 0 1 7 6L326 153.5q-3.662-9.162-12.5-13.5a1711 1711 0 0 0-133 8q-5.612 2.607-9.5 7.5l-6.5 13q-22.146 4.916-13.5 26 5.434 7.342 14.5 7a512 512 0 0 1 2 26 32.5 32.5 0 0 0-8 .5q-2.292 2.472-2 6a1930 1930 0 0 1 7.5 80.5L105.5 374q-1 1-2 0Q47.54 299.05 69 207.5 102.435 97.565 213.5 68a1586 1586 0 0 1 25-4.5"/><path style="opacity:1" fill="#dd4b4b" d="M382.5 112.5q10.102 6.845 18 16.5l-271 271q-1 1-2 0l-16-16a103981 103981 0 0 0 271-271.5"/><path style="opacity:1" fill="#fefefe" d="M331.5 227.5q-2.647-1.442-6-1v-4a8.4 8.4 0 0 1 .5-4l81-81q59.722 77.783 34 173Q407.203 412.298 304.5 443q-84.456 20.506-157-27a90 90 0 0 1-10-8.5 2830 2830 0 0 1 44.5-45 148 148 0 0 1 3 25q1.25 2.25 3.5 3.5 58 1 116 0 3.401-2.337 3.5-6.5a2616 2616 0 0 0 4.5-47 41 41 0 0 0 9-.5q2.75-.75 3.5-3.5a6470 6470 0 0 0 10-103 14.7 14.7 0 0 0-3.5-3"/><path style="opacity:1" fill="#8b838b" d="M310.5 168.5q-66.754.498-133-1 1.86-5.976 7-9.5 60.228-4.582 120.5-8.5 9.026.013 11 9 .944 6.856-5.5 10"/><path style="opacity:1" fill="#756c77" d="M161.5 180.5q68.502-.25 137 .5l-9 9q-63.5 1-127 0-5.46-4.047-1-9.5"/><path style="opacity:1" fill="#f5e7c4" d="M176.5 201.5q50.502-.25 101 .5l-25 25q-36.996.75-74 .5a1201 1201 0 0 1-2-26"/><path style="opacity:1" fill="#f4d08f" d="M172.5 238.5h3q32.76-.496 65 1a5831 5831 0 0 0-64.5 64 1030 1030 0 0 1-6.5-61v-4z"/><path style="opacity:1" fill="#f3cf8e" d="M305.5 238.5h18a1962 1962 0 0 0-8 88q-48.502.25-97-.5a34.5 34.5 0 0 1 7.5-6.5q29.005 12.699 52-9 17.181-23.399 6-50a666 666 0 0 0 21.5-22"/><path style="opacity:1" fill="#926759" d="M273.5 270.5q2.69.576 3 3.5 4.73 29.037-23 39-10.327 1.647-20-2a2284 2284 0 0 0 40-40.5"/><path style="opacity:1" fill="#f7e9c6" d="M206.5 337.5h95a1649 1649 0 0 1-4 43h-103a606 606 0 0 0-1.5-29 266 266 0 0 0 13.5-14"/></svg>