<svg xmlns="http://www.w3.org/2000/svg" width="750" height="750" viewBox="0 0 750 750">
  <path d="M215.315 574.545h2" fill="none" stroke="#d2374e" stroke-width="3.25" stroke-linecap="round" stroke-linejoin="round"/>
  <path d="M224.339 574.545h305.559" fill="none" stroke="#d2374e" stroke-width="3.25" stroke-linecap="round" stroke-linejoin="round" stroke-dasharray="4.0139,7.0243"/>
  <path d="M533.41 574.545h2" fill="none" stroke="#d2374e" stroke-width="3.25" stroke-linecap="round" stroke-linejoin="round"/>

  <path d="M241.703 561.963v8.392c-.002.075.004.159.007.234a4.2 4.2 0 0 0 1.628 3.086 4.2 4.2 0 0 0 2.416.868h258.53a4.2 4.2 0 0 0 4-3.905c-.001-.091.015-.19.009-.281v-8.392" 
    fill="none" stroke="#d2374e" stroke-width="2.75" stroke-linecap="round" stroke-linejoin="round" stroke-miterlimit="10"/>

  <path d="M207.05 175.481a6.3 6.3 0 0 0-4.268 1.672 6.3 6.3 0 0 0-2.015 4.473v300.607c.036 1.721.031 4.161.137 5.887.274 5.769.957 11.73 2.051 17.403 1.551 7.985 3.921 15.905 7.307 23.31 8.189 18.051 22.391 32.687 42.496 36.291 2.712.489 5.552.786 8.306.871 59.699-.165 171.955.495 231.631-.241 3.264-.322 6.582-.934 9.734-1.848a51.6 51.6 0 0 0 15.344-7.371c8.787-6.169 15.548-14.901 20.376-24.423 7.745-15.362 11.027-32.754 11.075-49.879V181.765a6.29 6.29 0 0 0-5.432-6.226c-84.143-.102-252.595-.048-336.74-.058" 
    fill="none" stroke="#d2374e" stroke-width="2.75" stroke-linecap="round" stroke-linejoin="round" stroke-miterlimit="10"/>

  <path d="M207.05 175.481a6.3 6.3 0 0 0-6.284 6.284v8.574c.05 2.62-.048 291.282.01 293.626.053 4.17.326 8.536.8 12.681 1.058 9.207 3.159 18.395 6.476 27.056 6.181 16.235 17.273 31.337 33.652 38.26v8.392c-.002.075.004.159.007.234a4.2 4.2 0 0 0 1.628 3.086 4.2 4.2 0 0 0 2.416.868h258.53a4.2 4.2 0 0 0 4-3.905v-8.392c15.901-6.723 26.842-21.17 33.102-36.861 3.837-9.569 6.15-19.784 7.196-30.03.256-2.546.454-5.37.55-7.923.029-.824.07-2.368.08-3.184.091-.355-.045-292.82.01-293.624v-8.576a6.3 6.3 0 0 0-4.922-6.135c-84.315-.432-252.904 0-337.252-.148" 
    fill="none" stroke="#d2374e" stroke-width="3.5" stroke-linecap="round" stroke-linejoin="round" stroke-miterlimit="10"/>
</svg>
