<svg width="966.78" height="1168.591" xmlns="http://www.w3.org/2000/svg"><path style="display:inline;fill:#000;fill-opacity:1" d="M29 1168.265c-.825-.302-3.636-1.426-6.248-2.497-4.353-1.787-4.993-1.822-7.7-.422-3.712 1.92-3.716 1.92-4.324-.404-.325-1.245-1.983-2.33-4.66-3.05-2.958-.797-4.431-1.844-5.112-3.634-.534-1.404-.956-16.249-.956-33.6v-31.086l10.96.666c6.028.366 14.69 1.325 19.25 2.132 11.143 1.97 19.775 1.872 42.295-.484 22.741-2.38 35.834-2.51 54.234-.54 8.684.93 35.16 1.873 71.761 2.556 31.9.596 69.475 1.487 83.5 1.98 34.666 1.218 110.21 1.154 122.5-.104 5.5-.563 17.701-1.363 27.113-1.779l17.114-.755 9.455-4.788c5.385-2.727 11.4-5.007 13.974-5.297 4.028-.454 4.92-.158 8.192 2.714 3.168 2.782 4.754 3.345 11.566 4.108 4.342.485 10.975 1.585 14.74 2.443 11.81 2.692 66.908 3.504 218.346 3.22l143.5-.27 12-5.178c12.73-5.492 27.034-10.122 28.07-9.086.343.343-.712 2.567-2.344 4.943s-3.27 5.71-3.64 7.41.089 10.476 1.022 19.5c2.266 21.918 2.479 49.575.392 50.99-.903.613-5.281.806-11 .484-49.322-2.771-531.82-6.377-674-5.036-103.586.977-100.443 1.003-121.377-1.025-19.955-1.933-26.86-1.49-46.829 3.006-11.994 2.7-19.558 3.701-21.794 2.883m69.684-24.223c8.305-4.445 8.802-21.344.782-26.6-3.793-2.485-12.226-2.477-16.494.015-6.904 4.032-9.609 14.63-5.65 22.136 3.423 6.49 13.592 8.607 21.362 4.449m-12.399-4.856c-2.311-3.528-2.266-13.166.078-16.745 2.24-3.418 6.046-3.4 8.3.04 2.393 3.652 2.27 14.702-.193 17.425-2.539 2.805-6.079 2.493-8.185-.72M730 1145.122c4.35-2.174 6.495-7.531 4.875-12.179-.78-2.235-2.438-3.664-6.462-5.568-5.63-2.664-6.877-5.042-3.926-7.491 1.973-1.637 4.513-.569 4.513 1.899 0 2.475 1.438 3.403 4.009 2.587 1.468-.466 1.991-1.515 1.991-3.993 0-4.302-2.235-6.504-6.604-6.504-14.541 0-18.534 15.127-5.381 20.39 4.525 1.81 5.84 3.874 3.934 6.171-1.88 2.265-5.24 1.337-6.772-1.87-.963-2.014-1.955-2.721-3.51-2.5-1.906.272-2.132.847-1.874 4.776.16 2.457.835 4.813 1.5 5.235 2.178 1.384 10.135.83 13.707-.953m-692-1.249c0-1.111-.667-2-1.5-2-1.048 0-1.5-1.056-1.5-3.5 0-5.278 2.346-4.356 5.09 2l2.374 5.5h4.768c4.012 0 4.768-.3 4.768-1.893 0-1.041-.616-2.13-1.369-2.418-.753-.29-2.503-2.555-3.89-5.036l-2.52-4.511 2.389-2.245c1.538-1.445 2.379-3.342 2.358-5.321-.066-6.398-3.978-8.576-15.402-8.576-7.9 0-8.566.156-8.566 2 0 1.1.45 2 1 2 .606 0 1 4.333 1 11s-.394 11-1 11c-.55 0-1 .9-1 2 0 1.795.667 2 6.5 2s6.5-.205 6.5-2m-2.326-13.66c-.37-.37-.674-2.848-.674-5.507 0-3.522.388-4.833 1.429-4.833 2.358 0 4.7 3.084 4.375 5.762-.311 2.57-3.92 5.79-5.13 4.578M140 1143.873c0-1.158-.667-2-1.583-2-3.303 0-.588-2.515 3.042-2.818 3.791-.317 7.382 1.577 4.791 2.526-.688.253-1.25 1.321-1.25 2.375 0 1.693.76 1.917 6.5 1.917s6.5-.224 6.5-1.917c0-1.054-.534-2.094-1.187-2.312s-3.05-5.993-5.328-12.833l-4.14-12.438-3.502-.3-3.501-.3-4.295 11.8c-2.362 6.49-5.139 12.547-6.17 13.46-3.732 3.302-2.422 4.84 4.123 4.84 5.333 0 6-.222 6-2m-.27-9.603c-.534-.534-.093-2.244 1.913-7.397.4-1.029.996-.4 1.894 2 .721 1.925 1.345 4.063 1.387 4.75.076 1.257-4.068 1.773-5.194.647m60.38 8.715c4.88-6.026 3.193-11.276-4.856-15.112-5.39-2.568-6.535-4.692-3.767-6.99 2.01-1.667 4.323-.617 5.053 2.295.475 1.89 1.11 2.294 3.03 1.926 1.962-.375 2.427-1.068 2.415-3.597-.02-4.148-.864-5.248-4.651-6.07-7.53-1.632-15.334 3.405-15.334 9.897 0 3.674 2.39 6.254 8.75 9.447 4.431 2.224 5.258 4.011 2.798 6.052-2.172 1.803-4.869.858-6.345-2.222-1.286-2.682-4.49-3.7-5.666-1.799-.319.517-.28 2.812.085 5.1l.666 4.16 7.954-.361c6.92-.315 8.203-.67 9.869-2.726zm47.89.888q0-2-2-2c-1.81 0-1.993-.642-1.926-6.75.04-3.712.378-8.744.75-11.181.644-4.222.759-4.35 2.426-2.68.962.965 1.75 2.397 1.75 3.183 0 .857 1 1.428 2.5 1.428 2.333 0 2.5-.333 2.5-5v-5h-27v4c0 2.2-.113 4.338-.25 4.75-.138.413.953.89 2.423 1.06 2.14.246 2.738-.15 3-1.99.18-1.265 1.114-2.45 2.077-2.633 1.577-.3 1.75.71 1.75 10.24 0 8.732-.261 10.573-1.5 10.573-.833 0-1.5.889-1.5 2 0 1.822.667 2 7.5 2s7.5-.178 7.5-2m52.764-1.969c.912-3.591.812-4.03-1.051-4.622-1.52-.482-2.56.034-3.97 1.969-1.15 1.58-2.871 2.622-4.326 2.622-2.198 0-2.417-.408-2.417-4.5 0-3.833.296-4.5 2-4.5 1.15 0 2 .667 2 1.57 0 1.055.737 1.465 2.25 1.25 1.92-.273 2.295-1.016 2.555-5.07.286-4.456.153-4.75-2.143-4.75-1.347 0-2.707.675-3.024 1.5-.316.825-1.264 1.5-2.107 1.5-1.148 0-1.531-1.126-1.531-4.5 0-2.475.337-4.494.75-4.486 2.614.048 5.136 1.443 5.564 3.079.29 1.11 1.374 1.907 2.592 1.907 1.815 0 2.094-.6 2.094-4.5v-4.5h-11c-10.333 0-11 .121-11 2 0 1.111.667 2 1.5 2 1.242 0 1.5 1.889 1.5 11s-.258 11-1.5 11c-.833 0-1.5.889-1.5 2 0 1.878.667 2 10.878 2h10.879zm38.236 1.97c0-1.1-.45-2-1-2s-1-1.613-1-3.584c0-5.697 2.362-4.058 5.524 3.833 1.455 3.631 1.66 3.75 6.49 3.75 4.32 0 4.986-.267 4.986-2 0-1.1-.563-2.006-1.25-2.014-.688-.01-2.48-2.245-3.984-4.971l-2.733-4.957 2.483-2.483c3.136-3.136 3.16-6.676.072-10.27-2.277-2.647-2.944-2.824-11.86-3.147-8.888-.321-9.48-.218-9.994 1.75-.363 1.39-.075 2.092.86 2.092 1.123 0 1.406 2.214 1.406 11 0 6.05-.398 11-.883 11-.486 0-1.12.9-1.407 2-.483 1.846-.03 2 5.884 2 5.74 0 6.406-.208 6.406-2m-1.402-13.736c-.33-.33-.598-2.773-.598-5.432 0-3.596.378-4.833 1.477-4.833 2.521 0 4.713 4.37 3.626 7.229-.954 2.51-3.39 4.15-4.505 3.036M397 1143.99c0-1.043-.893-2.117-2-2.407-1.357-.355-2-1.364-2-3.14 0-2.742 8.638-18.57 10.135-18.57.476 0 .865-.9.865-2 0-1.735-.667-2-5.031-2-3.72 0-5.194.423-5.655 1.624-.375.976.035 1.992 1.028 2.547 1.513.847 1.482 1.254-.366 4.877-1.11 2.174-2.367 3.952-2.795 3.952-.429 0-1.43-1.687-2.225-3.75s-1.598-4.087-1.784-4.5c-.186-.412.374-.75 1.245-.75.916 0 1.583-.842 1.583-2 0-1.808-.667-2-6.941-2-7.711 0-9.26 1.068-6.272 4.324 5.825 6.35 10.572 21.676 6.713 21.676-.833 0-1.5.889-1.5 2 0 1.822.667 2 7.5 2 6.678 0 7.5-.206 7.5-1.883m55.173.79c1.477-.79 2.344-.79 3.134 0 .601.601 3.253 1.093 5.893 1.093 4.133 0 4.8-.278 4.8-2 0-1.29-.667-2-1.878-2-3.599 0-4.384-2.441-2.054-6.39 1.171-1.985 2.535-3.61 3.03-3.61.496 0 .902-.9.902-2 0-1.733-.667-2-5-2-5.048 0-6.356 1.244-3.896 3.704.664.664.763 1.707.25 2.618-.728 1.29-1.264 1.16-3.63-.878l-2.776-2.392 2.026-2.026c1.126-1.126 2.026-3.347 2.026-5 0-5.851-10.169-7.857-15.056-2.97-2.332 2.332-2.53 6.213-.405 7.976 1.361 1.13 1.246 1.583-1 3.928-2.493 2.602-3.357 7.287-1.774 9.626 2.194 3.24 11.164 4.593 15.408 2.322m-7.423-3.987c-1.738-1.012-2.436-5.383-1-6.26 1.216-.74 7.535 5.07 6.802 6.256-.833 1.348-3.491 1.35-5.802 0zm.612-14.42c-.801-2.086.382-4.75 1.888-4.256 1.965.645 2.218 5.756.285 5.756-.879 0-1.857-.675-2.173-1.5m65.598 17.25c.505-1.237 1.784-4.696 2.843-7.685l1.926-5.435 2.28 7.685 2.282 7.685h7.313l3.396-13c2.16-8.273 3.869-13 4.698-13 .716 0 1.302-.9 1.302-2 0-1.778-.667-2-6-2s-6 .222-6 2c0 1.18.667 2 1.625 2 1.254 0 1.495.652 1.053 2.86-.315 1.573-.88 5.188-1.258 8.033-.378 2.846-.895 4.966-1.15 4.711s-1.457-4.432-2.673-9.283c-2.004-7.994-2.449-8.85-4.74-9.121-3.383-.403-4.27.968-6.348 9.8-.97 4.125-2.114 7.885-2.542 8.355s-1.1-2.59-1.494-6.8c-.628-6.702-.495-7.818 1.067-8.96 3.434-2.511 1.113-4.259-5.958-4.487-5.416-.176-6.721.092-7.255 1.484-.385 1.002-.032 2.15.862 2.804.886.648 2.675 6.392 4.315 13.856l2.802 12.748h3.368c2.555 0 3.59-.543 4.286-2.25m66.803-.422c5.049-3.77 6.705-7.018 6.691-13.129-.022-10.365-5.82-15.898-15.67-14.952-8.829.848-14.081 6.964-13.997 16.3.056 6.31 2.7 10.855 7.61 13.08 4.101 1.858 12.035 1.188 15.366-1.3m-11.69-3.963c-2.386-3.033-2.891-12.475-.902-16.842 1.358-2.98 5.192-4.297 7.335-2.518 3.941 3.271 4.215 16.274.422 20.067-2.61 2.61-4.392 2.425-6.855-.707m56.62 4.99c.35-.91.002-2.137-.78-2.75-1.533-1.2-1.42-7.948.124-7.416.495.171 2.152 2.786 3.682 5.811 2.652 5.246 2.978 5.514 7.04 5.808 5.078.367 6.87-1.994 3.556-4.686-1.098-.892-3.022-3.336-4.274-5.431l-2.278-3.81 2.044-2.19c3.607-3.865 3.73-7.058.414-10.77-2.845-3.183-3.24-3.306-12.066-3.728-8.04-.384-9.205-.226-9.802 1.33-.427 1.113-.063 2.216.984 2.982 1.354.99 1.663 3.032 1.663 10.995 0 7.964-.309 10.005-1.663 10.995-.984.72-1.405 1.886-1.03 2.86.48 1.254 1.953 1.645 6.193 1.645s5.713-.391 6.194-1.644M621 1124.374c0-5.715.765-6.592 3.429-3.928 2.935 2.935 1.47 9.428-2.129 9.428-.91 0-1.3-1.654-1.3-5.5m52 20.107c0-.766-.675-1.652-1.5-1.968-1.566-.601-2.234-8.639-.719-8.639.43 0 3.453 2.7 6.719 6 5.417 5.475 6.312 6 10.219 6 4.435 0 5.725-1.528 2.347-2.782-1.063-.395-4.393-3.868-7.398-7.718l-5.465-7 5.148-5.5c2.832-3.025 5.965-5.834 6.963-6.241 2.806-1.147.982-2.759-3.123-2.759-3.255 0-4.282.685-8.691 5.796-2.75 3.188-5.43 5.775-5.953 5.75-1.238-.06-.68-6.657.704-8.338 1.812-2.2-.595-3.343-6.349-3.015-4.184.239-5.457.697-5.716 2.057-.203 1.066.282 1.75 1.24 1.75 1.348 0 1.574 1.797 1.574 12.5 0 7.667-.387 12.5-1 12.5-.55 0-1 .675-1 1.5 0 1.167 1.333 1.5 6 1.5 4.462 0 6-.357 6-1.393m101.694-.251c.374-.975-.047-2.14-1.032-2.86-.949-.695-1.662-2.587-1.662-4.41 0-3.188.01-3.195 4.75-2.89 4.387.28 4.775.52 5.075 3.14.209 1.826-.294 3.287-1.413 4.105-1.043.763-1.485 1.927-1.106 2.915.49 1.274 1.988 1.644 6.663 1.644 5.766 0 6.03-.11 6.03-2.5 0-1.375-.45-2.5-1-2.5-.602 0-1-4.167-1-10.5s.398-10.5 1-10.5c.55 0 1-1.125 1-2.5 0-2.357-.306-2.5-5.392-2.5-4.112 0-5.545.396-6.033 1.667-.352.917-.175 2.132.393 2.7s1.033 3.218 1.033 5.888v4.855l-4.75-.305-4.75-.305-.311-4.324c-.171-2.378.174-4.908.767-5.623 2.29-2.758.097-4.553-5.563-4.553-5.086 0-5.393.143-5.393 2.5 0 1.375.45 2.5 1 2.5.603 0 1 4.147 1 10.441 0 5.882-.437 10.71-1 11.06-.55.339-1 1.49-1 2.558 0 1.707.728 1.941 6.031 1.941 4.675 0 6.174-.37 6.663-1.644m58.69.257c10.108-4.223 11.667-21.953 2.426-27.587-4.266-2.601-10.752-2.606-15.836-.012-7.433 3.792-10.195 14.262-5.817 22.051 3.589 6.386 11.652 8.713 19.226 5.548m-9.402-4.426c-4.051-3.28-3.682-16.701.556-20.219 2.526-2.096 6.191-.318 7.497 3.638 1.724 5.224.807 15.306-1.55 17.029-2.482 1.815-3.823 1.722-6.503-.448m51.712 4.169c.374-.975-.047-2.14-1.032-2.86-.916-.67-1.662-2.575-1.662-4.245 0-2.673.413-3.106 3.521-3.689 4.815-.903 10.479-6.007 10.479-9.443 0-6.319-5.27-9.103-17.25-9.113-6.535-.01-6.75.074-6.75 2.494 0 1.375.45 2.5 1 2.5.603 0 1 4.167 1 10.5s-.397 10.5-1 10.5c-.55 0-1 1.125-1 2.5 0 2.39.265 2.5 6.031 2.5 4.675 0 6.174-.37 6.663-1.644M873 1124.932c0-2.717.434-5.209.963-5.536 1.253-.774 5.037 3.015 5.037 5.043 0 2.737-2.003 5.434-4.035 5.434-1.688 0-1.965-.696-1.965-4.94m-812.5-47.56c-3.85-.795-10.78-3.312-15.4-5.595-21.176-10.461-33.263-32.919-34.798-64.654-.326-6.737-.415-12.286-.198-12.33 2.437-.49 45.714-2.513 46.619-2.179.672.249 1.483 2.096 1.801 4.106 2.469 15.59 7.447 24.153 14.042 24.153 4.225 0 5.934-2.302 5.934-7.996 0-6.356-3.896-10.965-21.343-25.245-7.511-6.148-17.732-15.29-22.713-20.315-7.441-7.508-9.897-10.814-13.769-18.54-8.53-17.022-10.774-33.375-6.743-49.138 5.653-22.103 20.796-38.658 41.568-45.445 10.034-3.278 26.173-3.729 36.5-1.02 20.973 5.505 37.202 20.613 44.46 41.393 2.642 7.565 4.987 22.323 4.027 25.347-.835 2.63-1.597 2.736-27.91 3.902C89.18 924.852 87 924.63 87 921.21c0-3.222-4.077-9.32-6.667-9.97-8.1-2.032-8.56 7.827-.769 16.493 2.476 2.753 8.874 8.273 14.219 12.266l17.151 12.814c12.507 9.342 23.953 25.848 27.579 39.77 3.606 13.845.712 36.885-6.445 51.31-5.94 11.975-16.06 22.873-25.896 27.891-12.344 6.298-31.102 8.592-45.672 5.586m761 .02c-26.345-5.81-42.552-23.853-48.52-54.018-2.39-12.09-3.052-26.196-1.296-27.653.725-.601 8.405-1.467 17.067-1.924 24.068-1.27 28.264-1.317 29.126-.332.437.5 1.745 4.867 2.907 9.705 2.383 9.934 5.136 15.094 9.16 17.174 3.623 1.874 6.796.934 8.596-2.548 4.117-7.962-.84-14.572-26.54-35.388-6.325-5.122-14.218-12.05-17.54-15.392-7.069-7.113-14.478-19.08-18.178-29.36-2.336-6.486-2.631-8.813-2.702-21.282-.09-15.57.76-19.317 7.246-32 4.865-9.512 17.254-21.921 26.174-26.216 9.865-4.75 18.099-6.589 29.5-6.589 30.669 0 54.498 18.463 62.346 48.305 2.634 10.014 3.446 19.242 1.873 21.286-1.008 1.31-5.449 1.78-25.602 2.716-16.429.763-24.712.803-25.393.122-.556-.556-1.959-3.388-3.117-6.294-2.283-5.723-6.09-8.277-9.313-6.244-7.85 4.952 1.8 18.118 25.706 35.067 13.86 9.827 20.721 16.447 27.094 26.14 8.636 13.136 11.44 23.489 10.613 39.181-1.085 20.58-7.884 37.264-20.183 49.53-8.151 8.13-16.172 12.72-27.12 15.52-9.01 2.304-22.73 2.517-31.904.494m-685.44-.46c-1.237-.783-1.12-2.638.834-13.234 1.25-6.779 9.018-48.55 17.262-92.824s16.456-88.464 18.25-98.197c1.793-9.733 3.84-18.396 4.55-19.25 1.114-1.343 5.457-1.554 32.044-1.554 23.442 0 31.003.298 31.796 1.254.573.69 2.4 8.453 4.06 17.25 1.662 8.798 6.439 33.771 10.617 55.496s9.179 47.825 11.114 58c1.934 10.175 6.564 34.25 10.287 53.5 5.155 26.648 6.55 35.656 5.85 37.75l-.92 2.75h-26.78c-20.233 0-27.02-.306-27.761-1.25-.54-.687-2.24-11.15-3.778-23.25s-3.412-23.012-4.164-24.25c-1.24-2.042-2.132-2.25-9.653-2.25-5.14 0-8.871.475-9.828 1.25-1.129.915-2.27 7.14-4.264 23.25-1.497 12.1-3.13 23.013-3.628 24.25l-.905 2.25-26.772-.015c-14.724-.01-27.419-.425-28.21-.926zm78.843-84.308c-.172-7.541-4.37-33.255-5.403-33.09-.55.088-1.338 1.888-1.75 4-1.464 7.493-4.509 31.851-4.074 32.59.243.412 2.89.75 5.883.75H215zm76.297 84.05c-1.742-1.743-1.742-221.86 0-223.601 1.927-1.927 76.284-1.646 84.623.32 22.577 5.323 39.143 22.15 44.77 45.48 2.67 11.072 2.436 27.494-.515 36-3.318 9.567-8.181 16.912-16.218 24.494-11.717 11.053-23.69 15.48-41.91 15.499-4.53 0-8.03.487-8.75 1.207-.901.901-1.2 13.576-1.2 50.893 0 44.391-.169 49.758-1.582 50.3-.87.334-14.28.607-29.8.607-20.614 0-28.541-.323-29.418-1.2m68.395-139.906c1.64-1.812 1.905-3.699 1.905-13.58 0-10.32-.201-11.623-2-12.938-1.099-.804-3.124-1.33-4.5-1.17l-2.5.293-.28 12.76c-.168 7.672.145 13.553.785 14.75 1.383 2.584 4.192 2.535 6.59-.115m71.44 139.17c-.695-1.299-1.035-38.002-1.035-111.877 0-91.953.224-110.13 1.372-111.082.97-.805 9.387-1.06 28.75-.872l27.378.266.274 110.5c.151 60.775.03 111.513-.269 112.75l-.543 2.25h-27.446c-26.111 0-27.496-.094-28.48-1.934m70.165.735c-1.785-1.785-1.736-220.688.05-223.12 1.155-1.573 5.462-1.682 56.75-1.441l55.5.261.265 29.432c.207 22.873-.016 29.614-1 30.25-.696.451-12.85.792-27.01.757s-26.22.23-26.8.589c-1.338.827-1.089 17.505.288 19.222.708.883 4.775 1.25 13.86 1.25 12.516 0 12.874.06 13.426 2.26.682 2.716.185 55.364-.529 56.073-.275.273-6.5.722-13.833.998s-13.575.744-13.871 1.04c-.675.675-.395 19.66.306 20.794.284.46 12.816.835 27.85.835 24.003 0 27.408.193 27.941 1.582.792 2.064.792 56.772 0 58.836-.543 1.417-6.438 1.582-56.3 1.582-41.983 0-55.988-.295-56.893-1.2m126.407-.382c-.334-.87-.607-51.18-.607-111.8 0-84.392.281-110.5 1.2-111.418.873-.873 8.454-1.2 27.845-1.2 24.15 0 26.783.164 28.115 1.75.808.963 5.383 16.696 10.166 34.964s9.13 34.355 9.66 35.75c2.552 6.712 3.014 1.746 3.014-32.399 0-20.279.41-36.01.975-37.5l.975-2.565h24.403c19.334 0 24.636.282 25.529 1.358.824.993 1.058 31.266.872 112.75l-.254 111.392-30.116.265c-23.327.204-30.347-.021-31.142-1-.565-.696-4.002-13.415-7.64-28.265-8.318-33.968-7.595-31.5-9.219-31.5-1.146 0-1.383 5.02-1.383 29.3 0 21.456-.321 29.621-1.2 30.5-.869.869-8.02 1.2-25.893 1.2-21.594 0-24.77-.198-25.3-1.582M76.5 837.243c-6.01-.933-18.397-5.537-24.127-8.969-12.103-7.247-23.985-21.71-30.303-36.889-1.783-4.28-4.44-12.784-5.905-18.897L13.5 761.373l.012-50.5c.01-43.378.255-51.862 1.737-60.156 6.89-38.58 25.17-62.084 54.45-70.012 11.195-3.031 28.892-3.037 39.6-.013 15.771 4.453 28.342 12.752 37.149 24.526 9.217 12.322 15.01 25.752 17.993 41.71 1.841 9.854 2.536 31.374 1.06 32.79-.55.528-15.998 1.519-34.328 2.202l-33.327 1.243-2.173-2.172c-1.974-1.975-2.194-3.335-2.4-14.895-.125-6.998-.47-13.729-.766-14.958-.739-3.07-4.989-4.044-7.547-1.728-1.902 1.721-1.96 3.431-1.96 58.418 0 42.724.295 56.94 1.2 57.845 1.635 1.635 6.294 1.515 7.716-.199.788-.949 1.167-7.339 1.179-19.857.019-19.95.305-22.38 2.78-23.625 2.725-1.372 67.214 1.542 68.78 3.107 1.077 1.077 1.14 4.279.334 16.95-.546 8.593-1.69 19.38-2.543 23.974-7.021 37.83-24.46 60.792-52.44 69.051-6.432 1.9-26.764 3.215-33.506 2.169m153.307-1.343c-26.618-6.765-43.896-24.605-51.064-52.726-2.212-8.678-2.243-9.714-2.243-74.3 0-70.026-.03-69.535 5.193-84.871 3.526-10.353 8.49-18.333 16.185-26.017 7.65-7.64 15.051-12.273 24.961-15.625 32.688-11.06 68.23.685 85.012 28.09 4.058 6.628 7.6 16.154 9.592 25.802 2.262 10.95 2.4 131.067.164 142.664-5.575 28.914-21.565 47.512-48.107 55.953-10.151 3.228-29.108 3.72-39.693 1.03m21.364-70.682c1.73-1.565 1.829-4.653 1.829-57 0-54.012-.048-55.393-2-57.345-2.714-2.713-4.617-2.514-6.727.706-1.642 2.506-1.773 6.696-1.773 56.75 0 57.431.09 58.544 4.706 58.544 1.175 0 2.96-.745 3.965-1.655m81.029 70.455c-.92-.92-1.2-30.584-1.2-127.428 0-113.42.16-126.388 1.571-127.8 1.396-1.396 8.618-1.572 64.419-1.572 34.565 0 63.558.273 64.428.607 1.397.536 1.582 4.367 1.582 32.8 0 23.706-.316 32.51-1.2 33.393-.879.879-9.029 1.2-30.429 1.2-25.238 0-29.443.215-30.8 1.572-1.996 1.996-2.31 23.29-.371 25.228.824.824 5.778 1.2 15.8 1.2s14.976.376 15.8 1.2c.883.884 1.2 9.667 1.2 33.3s-.317 32.417-1.2 33.3c-.821.821-5.699 1.2-15.443 1.2-13.585 0-14.316.103-15.8 2.223-1.35 1.928-1.557 7.93-1.557 45.3 0 32.17-.304 43.38-1.2 44.277-.883.883-9.556 1.2-32.8 1.2s-31.917-.317-32.8-1.2m145 0c-1.594-1.594-1.756-251.893-.165-254.866 1.007-1.88 2.781-1.934 64.8-1.934 48.262 0 64.057.292 64.965 1.2.883.883 1.2 9.556 1.2 32.8 0 23.245-.317 31.917-1.2 32.8-.88.88-9.111 1.2-30.8 1.2s-29.92.32-30.8 1.2c-1.755 1.755-1.651 24.18.119 25.65.789.655 7.32 1.206 16.25 1.372l14.931.278v68l-15.289.5c-12.11.396-15.486.812-16.235 2-.556.882-.952 19.437-.96 45.05-.012 32.521-.32 43.854-1.216 44.75-.883.883-9.556 1.2-32.8 1.2s-31.917-.317-32.8-1.2m143.84-.727c-1.649-3.079-1.4-249.803.254-253.073l1.265-2.5H749.5v68l-31 .536c-17.05.295-31.113.633-31.25.75-.138.118-.25 5.39-.25 11.714v11.5h14.878c11.373 0 15.145.323 16.014 1.37.809.975 1.06 10.688.872 33.75l-.264 32.38-14 .243c-20.436.355-18.614-.993-18.28 13.534l.28 12.223 32 .535c17.6.295 32.118.632 32.263.75s.145 15.853 0 34.965l-.263 34.75-64.21.257c-62.682.252-64.237.211-65.25-1.684m145.16.727c-.92-.92-1.2-30.565-1.2-127.345 0-120.937.076-126.213 1.829-127.8 1.66-1.502 7.543-1.655 63.877-1.655 51.299 0 62.246.237 63.185 1.37.81.975 1.06 10.817.873 34.25l-.264 32.88-30.416.265c-20.404.178-30.854.63-31.75 1.372-1.387 1.152-1.965 18.055-.727 21.281.516 1.344 2.839 1.582 15.465 1.582 13.666 0 14.94.155 15.893 1.934.65 1.214 1.035 13.476 1.035 32.929 0 27.174-.199 31.193-1.612 32.606-1.347 1.347-3.971 1.59-15.94 1.476-7.881-.075-14.806.158-15.389.518-1.527.944-1.401 21.795.14 23.337.882.881 9.334 1.2 31.8 1.2 22.468 0 30.92.32 31.8 1.2 1.719 1.718 1.719 66.882 0 68.6-1.733 1.734-126.865 1.734-128.6 0M10.215 582.613c-1.193-1.462-5.738-32.29-7.187-48.74-1.004-11.415-.589-19.89 1.141-23.25 1.093-2.123 4.994-2.196 19.65-.367l10.32 1.288 5.406-3.788c5.657-3.962 12.84-6.883 16.93-6.883 3.151 0 4.13-1.673 1.474-2.516-1.144-.363-3.626-2.017-5.515-3.676-7.267-6.38-3.257-14.999 15.313-32.915 12.429-11.99 22.513-19.858 25.602-19.973 1.183-.045 4.121-.607 6.53-1.25 3.91-1.045 4.553-1.647 6.018-5.642 3.012-8.216 12.414-11.574 19.799-7.072 7.335 4.473 7.921 9.774 2.369 21.409-3.816 7.994-6.296 9.152-12.422 5.797-5.285-2.895-6.666-1.695-6.57 5.71.185 14.273.371 14.667 13.31 28.26 12.628 13.27 15.548 17.297 13.195 18.2-2.587.993-11.747-4.963-20.319-13.213-1.782-1.715-3.47-3.119-3.75-3.119-1.052 0-.441 4.406 1.573 11.336l2.081 7.164 44.919.213c24.705.116 44.918.043 44.918-.163s-1.587-2.777-3.526-5.713c-3.833-5.8-6.064-11.857-5.2-14.11.301-.783 7.225-5.397 15.386-10.253 25.27-15.033 25.458-15.286 26.143-35.168l.454-13.193-3.141-3.966c-4.1-5.177-6.319-11.549-5.514-15.837 1.013-5.402 10.349-18.948 28.816-41.81 14.724-18.228 24.706-29.058 28.582-31.01 3.226-1.624 36.3-8.062 47.214-9.19 5.55-.574 9.197 1.524 13.875 7.982 5.393 7.444 3.667 14.191-6.432 25.151l-7.31 7.933-3.518-2.683c-4.785-3.65-8.815-3.512-13.332.454-4.907 4.308-5.268 5.211-6.987 17.452-2.983 21.252-2.267 28.908 4.946 52.911 3.067 10.206 4.439 20.5 2.732 20.5-.6 0-2.777-3.037-4.839-6.75-6.452-11.617-13.94-23.698-17.865-28.822-5.215-6.808-6.297-9.832-7.556-21.12-.601-5.393-1.266-9.979-1.476-10.19-.858-.857-20.481 15.16-20.426 16.673.014.39 3.18 2.713 7.035 5.162 6.798 4.318 12.164 9.126 22.338 20.017l4.9 5.244-1.619 8.643c-2.274 12.142-4.491 29.03-5.276 40.19-.741 10.55-.622 10.818 5.783 12.88 4.774 1.537 8.813 4.744 8.813 6.998 0 1.675 2.968 1.81 50.75 2.32 27.912.297 50.909.392 51.103.211s-1.986-3.715-4.846-7.852-5.045-7.966-4.854-8.508 6.526-7.707 14.079-15.924c36.02-39.189 36.426-39.844 52.79-85.291l3.825-10.62-2.424-6.676c-1.333-3.672-2.423-8.057-2.423-9.744 0-3.12 4.257-29.068 5.957-36.313.513-2.184.73-4.174.484-4.42-2.377-2.377-14.613 20.368-23.344 43.392-3.959 10.438-5.342 13.063-7.018 13.32-1.222.188-2.344-.348-2.706-1.291-.818-2.13 6.7-32.615 12.1-49.075 5.988-18.247 7.69-21.15 16.527-28.197 8.052-6.42 17.665-15.538 22.507-21.35 1.646-1.976 5.784-5.8 9.196-8.5 3.412-2.699 12.254-10.59 19.65-17.535 17.529-16.461 25.724-22.362 30.871-22.227 4.29.112 10.695 3.145 18.528 8.772 4.918 3.534 5.248 4.038 5.248 8.028 0 6.18-1.763 10.462-6.406 15.555-2.257 2.475-6.571 7.763-9.588 11.75s-6.062 7.25-6.766 7.25c-1.899 0-9.249-4.86-9.895-6.543-1.359-3.541-6.913-.383-11.209 6.374-5.775 9.083-5.347 16.344 2.48 42.084 3.93 12.924 4.384 15.454 4.384 24.457 0 5.524.698 15.462 1.55 22.086 1.976 15.336 1.662 26.885-.742 27.344-2.434.464-4.257-3.814-6.174-14.487-.907-5.051-2.474-11.126-3.483-13.5-1.008-2.373-2.882-8.59-4.164-13.815s-3.388-11.811-4.68-14.637c-1.293-2.825-2.85-9.012-3.462-13.75-.611-4.737-1.39-8.612-1.728-8.61-.34 0-4.217 7.075-8.617 15.72-7.974 15.67-8 15.744-7.906 23.248.085 6.72.874 9.677 7.355 27.53 12.214 33.646 21.585 55.32 39.953 92.407C551.006 493.106 556 503.786 556 504.516c0 1.018 2.143 1.284 9.25 1.145 6.33-.123 10.976.355 14.718 1.516 7.099 2.202 29.11 2.287 43.227.167 5.6-.841 11.785-1.45 13.744-1.353s6.95-.385 11.091-1.072c6.6-1.095 8.393-1.033 14.5.5 6.008 1.508 9.731 1.657 26.97 1.08 11-.37 41.825-1.328 68.5-2.13 26.675-.803 55.25-1.738 63.5-2.078 14.814-.61 15.056-.586 19.5 1.955 11.434 6.536 16.54 8.785 21.202 9.337l5.032.596-1.275-2.403c-3.336-6.287-16.707-27.084-43.015-66.903-15.806-23.925-31.548-48.675-34.981-55-7.178-13.224-11.004-18.452-15.021-20.53-4.257-2.201-8.053-1.791-12.996 1.403-5.771 3.73-9.505 7.837-21.481 23.627-15.406 20.312-60.097 72.454-80.085 93.436-7.145 7.5-8.316 8.362-9.75 7.172-4.134-3.431-.94-10.8 13.706-31.608 5.807-8.25 11.707-17.362 13.11-20.25 1.405-2.887 3.768-7.758 5.252-10.823s6.321-9.827 10.75-15.028c4.429-5.2 10.442-12.255 13.363-15.677 10.342-12.115 25.356-35.984 32.118-51.062 5.022-11.197 6.898-19.173 9.04-38.43 2.681-24.12 2.59-32.148-.62-54.405l-2.694-18.674-7.078-.326c-3.892-.179-11.127.03-16.077.463s-17.255.949-27.344 1.144-18.739.751-19.223 1.235c-1.59 1.59-7.765 27.637-8.849 37.333-.584 5.225-1.528 16.25-2.098 24.5-1.593 23.075-5.806 40.066-10.37 41.817-3.252 1.248-3.9-1.885-3.224-15.577.36-7.282.877-34.84 1.149-61.24l.494-48 2.759-4.473c1.593-2.584 4.77-5.717 7.519-7.417l4.76-2.942 27.713-1.282c15.243-.705 37.839-1.728 50.214-2.272 18.48-.813 23.523-1.359 28.225-3.052 7.526-2.71 9.592-2.612 17.713.844 12.835 5.462 20.338 6.595 43.562 6.582 22.915-.014 28.397-.894 37.002-5.936 8.658-5.074 10.126-12.471 8.13-40.97-1.705-24.35-1.082-28.233 8.684-54.082 6.442-17.049 7.016-19.72 6.293-29.287-.6-7.934-.519-8.394 1.906-10.819 3.595-3.595 5.709-2.776 7.485 2.897 1.252 3.998 1.831 4.704 3.5 4.264 1.1-.29 2.715-.534 3.59-.541.874-.008 2.084-1.1 2.689-2.428.939-2.06 2.024-2.507 7.41-3.05 3.471-.349 15.536-.275 26.81.165 24.37.95 23.552.258 16.392 13.867-8.816 16.756-13.326 20.432-25.065 20.432h-6.998l-6.618-6.855c-6.041-6.258-7.052-6.907-11.588-7.444-2.733-.324-5.883-1.16-7-1.857s-2.256-1.044-2.53-.77c-.868.868-2.481 50.762-3.13 96.828-.345 24.422-1.037 45.48-1.538 46.799-1.747 4.593-6.416 5.517-32.424 6.412-13.2.455-32.325 1.513-42.5 2.35-10.175.839-21.382 1.527-24.905 1.53l-6.404.007.687 25.75c.852 31.928 2.314 57.026 3.744 64.25 1.484 7.495 5.29 15.368 21.274 44 14.402 25.798 48.823 93.766 59.507 117.5 15.092 33.528 22.328 55.224 24.847 74.5.992 7.592.849 8.486-1.412 8.808-1.609.229-2.958-.848-5.27-4.209-2.342-3.404-3.902-4.638-6.337-5.01-9.872-1.51-39.489-4.831-47.231-5.297-8.115-.488-200.484 1.983-245.336 3.152-18 .47-18.461.536-25.19 3.637-6.765 3.119-6.938 3.143-13.325 1.873-5.178-1.029-9.552-1.049-21.896-.1-15.302 1.175-20.392.905-34.753-1.848-12.933-2.479-59.334-3.25-155-2.577-53.075.374-98.075.843-100 1.043s-22.85.666-46.5 1.036c-87.61 1.37-102.674 1.912-106.25 3.814-4.438 2.361-18.876 3.62-41.85 3.652-11.628.016-20.432.474-22.5 1.17-1.87.63-6.1 3.027-9.4 5.328-8.14 5.674-8.137 5.673-9.285 4.267zm93.923-72.56c1.438-.597 1.11-2.08-2.685-12.18-2.378-6.325-5.134-14.312-6.125-17.75-1.003-3.474-2.372-6.25-3.084-6.25-.704 0-4.085 1.715-7.512 3.81C75.106 483.57 74 484.314 74 484.906c0 .303 2.583 1.818 5.74 3.367s8.764 4.771 12.46 7.162c6.958 4.5 9.589 8.798 7.688 12.558-1.326 2.624.62 3.567 4.25 2.06m406.112-.609c14.712.04 26.75-.126 26.75-.368 0-.241-1.35-1.976-3-3.856s-3-4.246-3-5.26c0-3.344-3.099-9.353-12.926-25.065-11.227-17.948-19.6-32.999-26.937-48.415-2.851-5.992-5.34-10.717-5.531-10.5-.191.216-2.625 7.143-5.41 15.393-9.046 26.808-8.448 26.076-34.574 42.309-19.216 11.94-26.333 17.3-27.682 20.85-1.154 3.033.09 8.303 3.128 13.248l2.093 3.407 30.17-.907c16.593-.499 42.206-.875 56.919-.836m-239.22-1.034c-.973-1.173-.71-2.509 1.326-6.75 3.53-7.349 5.737-19.07 6.374-33.857l.543-12.57-2.72-2.14c-2.402-1.89-12.442-6.237-14.34-6.21-.392.006-2.49 5.95-4.662 13.208-4.776 15.958-6.083 17.596-17.051 21.375-4.4 1.516-12.725 4.613-18.5 6.882l-10.5 4.125.06 4.95c.033 2.723.39 6.638.795 8.7l.736 3.75h29.577c25.844 0 29.424-.185 28.363-1.463M915 82.841c0-2.451-3.024-7.968-4.367-7.968-5.094 0-6.15 3.662-1.998 6.928 2.785 2.19 6.365 2.776 6.365 1.04m-156.932 104.16c-.583-1.09-2.201-11.578-3.595-23.305-2.993-25.18-4.978-38.109-7.11-46.323-.906-3.49-1.385-8.41-1.146-11.763.536-7.486 3.074-11.055 8.35-11.737 3.062-.396 4.327-1.228 6.084-4 4.66-7.352 3.963-7.18 15.486-3.816 6.938 2.025 10.785 3.688 11.763 5.083 1.436 2.051 1.482 2.038 4.166-1.177 1.997-2.393 3.798-3.396 6.82-3.802l4.108-.55 2.451 5.543C810.638 102.896 816 120.453 816 125.715c0 4.97-.135 5.235-2.956 5.8-2.568.513-3.039 1.14-3.583 4.767l-.626 4.176-12.668-.404c-7.347-.234-14.032-.966-15.917-1.741-2.946-1.213-3.25-1.172-3.25.43 0 2.065 6.976 11.725 9.994 13.838 1.14.798 5.435 1.706 9.546 2.017 9.338.706 10.968 1.753 10.082 6.478-1.15 6.132-3.462 7.297-14.475 7.297-5.306 0-11.672-.225-14.147-.5l-4.5-.5-.568 4.5c-.312 2.475-1.662 7.2-3 10.5-2.383 5.88-2.516 6.006-6.618 6.304-3.339.243-4.4-.096-5.246-1.677m39.902-70.184c-1.286-2.403-1.872-2.632-8.33-3.255-4.017-.387-5.232-.097-7 1.671l-2.14 2.14 8.5.564c4.675.31 8.853.647 9.285.75s.29-.74-.315-1.87m134.657-63.021c-3.486-7.382-3.212-11.753 1.133-18.088 8.804-12.834 11.925-23.865 8.842-31.246-1.871-4.478-1.425-5.644 1.238-3.233 2.786 2.52 4.472 9.286 4.34 17.419-.183 11.435-1.375 14.399-8.21 20.415-6.615 5.823-6.96 7.033-3.913 13.748 1.896 4.18 1.987 7.062.223 7.062-.431 0-2.075-2.735-3.653-6.077m10.483 2.756c-2.542-4.115-2.724-8.922-.423-11.223.928-.928 3.634-2.522 6.014-3.542 4.691-2.011 6.299-4.685 6.299-10.479 0-1.89.429-3.435.953-3.435 1.69 0 2.858 6.573 1.978 11.133-.464 2.402-.864 4.699-.887 5.105-.024.405-1.808 1.85-3.965 3.212-3.924 2.478-5.358 4.943-5.502 9.462-.117 3.674-2.117 3.57-4.467-.233"/></svg>