<svg xmlns="http://www.w3.org/2000/svg" viewBox="0 0 512 512" width="512" height="512"><path d="M400 57c-3.06-11.6-7.71-18.32-12.08-29.92-4.36-11.61-20.91-6.01-32.92-6.08s-26.4 2.67-39 3-26.18 1.12-39 2-27.06.97-40 2-25.97 1.11-39 2-26.74 1.7-39.93 2.07S132.51 34.93 119 34c-3.46 8-9.21 15.01-13 23z" fill="none" stroke="#2E2A2A" stroke-width=".3"/><path d="M443 73H69v30h374z" fill="none" stroke="#3C3939" stroke-width=".3"/><path d="M93 119h326c-6.23-2.02-13.87-.74-21-1s-14.76.12-22 0-14.71.05-22 0-14.69.02-22 0-14.69.01-22 0-14.71 0-22 0h-22c-7.24 0-13.77-.01-21 0s-14.74-.02-22 0-14.76-.05-22 0-14.83-.11-22 0-15.02-.24-22 0-15.45-.53-22 0-16.39-1.17-22 0-17.24-3.21-20 1Z" fill="none" stroke="#686868" stroke-width=".3"/><path d="M390 164h22c2.76-3.19.24-11.89 2.02-15.98 1.79-4.08 1.57-9.86 2.65-14.35s.71-10.27 2.33-14.67H93c1.76 15.07 4.61 29.86 6 45z" fill="none" stroke="#DFDFDF" stroke-width=".3"/><path d="M412 164h-22c3.9.38 18.77 3.75 22 0Z" fill="none" stroke="#696969" stroke-width=".3"/><path d="M93 180c20.41-3.66 42.18 1.5 63 0s43.02.43 64 0 41.98-.4 63 0 43.04-1.46 64 0 43.35-3.49 64 0c-18.99-5.76-42.49.79-63-1s-43.17.47-64 0-43.18-.54-64 0-43.53-1.9-64 0-44.05-4.99-63 1Z" fill="none" stroke="#653908" stroke-width=".3"/><path d="M88 201c3.35 4.37 14.27-.24 20 1s15.39-.56 22 0 14.99-.25 22 0 14.81-.11 22 0 14.73-.05 22 0 14.7-.02 22 0 14.68-.01 22 0 14.67 0 22 0h154c2.7-2.98.07-10.09 1.99-13.99 1.93-3.91-4.51-7.26-6.99-8.01-20.65-3.49-43.04 1.46-64 0s-42.98.4-64 0-42.02-.43-63 0-43.18-1.5-64 0-42.59-3.66-63 0c-7.12 2.25-8.48 14.54-5 21Z" fill="none" stroke="#FE8F16" stroke-width=".3"/><path d="M416 202H262c-7.33 0-14.68.01-22 0s-14.7.02-22 0-14.73.05-22 0-14.81.11-22 0-14.99.25-22 0-15.39.56-22 0-16.27 1.24-22 0-16.65 3.37-20-1c3.12 5.78 17.4.66 24 2s17.32-.58 25 0 17.88-.27 26 0 16.66-.12 25 0 17.58-.05 26 0 16.54-.01 25 0 17.54.02 26 0 16.57.06 25 0 17.64.13 26 0 16.83.3 25 0 18.21.64 26 0 18.14 1.48 25 0 19.68 3.76 24-1Z" fill="none" stroke="#874C0B" stroke-width=".3"/><path d="M116 393c4.55 3.22 14.09-1.37 20 0s14.49-.62 21 0 14.22-.28 21 0 14.1-.12 21 0 14.05-.05 21 0 14.03-.01 21 0 14.03.02 21 0 14.05.06 21 0 14.1.13 21 0 14.21.3 21 0 14.47.67 21 0 15.04 1.48 21 0 16.3 3.29 21 0c8.91-57.72 17.79-116.48 25-175H91c1.17 7.29 1.69 14.76 3.01 21.99 1.31 7.23 1.72 14.78 3.01 21.99 1.3 7.2 1.9 14.74 3.05 21.95 1.16 7.2 2.14 14.63 3.15 21.85s1.57 15.09 2.85 22.15 1.83 15.03 3.15 21.85c1.33 6.82 1.35 15.43 3.45 21.55S111.62 388.57 116 393m124-26c-1.89 2.22-3.68 4.28-6 6-25.37 18.87-56.11-11.37-63.32-35.68-7.22-24.31 3.92-72 40.32-61.32 7.87-23.56 24.65-42.27 52-43s40.52 37.24 28 60c19.35-2.29 45.8 11.87 45.93 33.07.12 21.2-15.56 37.47-33.62 46.24-18.07 8.76-45.7 8.09-59.31-9.31-1.57.96-3.25 2.32-4 4Z" fill="none" stroke="#FEA84C" stroke-width=".3"/><path d="M234 373c1.92-1.67 4.22-4.22 6-6 .75-1.68 2.43-3.04 4-4 13.61 17.4 41.24 18.07 59.31 9.31 18.06-8.77 33.74-25.04 33.62-46.24-.13-21.2-26.58-35.36-45.93-33.07 12.52-22.76-.65-60.73-28-60s-44.13 19.44-52 43c-36.4-10.68-47.54 37.01-40.32 61.32 7.21 24.31 37.95 54.55 63.32 35.68m31-124c-15.11 11.83-19.16 29.26-27 45-5.15-5.32-15.11-9.6-11.22-17.22 3.89-7.63 6.15-14.31 12.97-20.03 6.83-5.71 16.17-8.5 25.25-7.75m13 10c2.1 9.91 3.44 27.64-4.3 35.7-7.75 8.05-19.47 9.65-26.7 18.3-.96-10.11 10.87-18.16 11.98-29.02 1.1-10.87 11.95-17.69 19.02-24.98m-50 99c1.95-25.29-23.91-41.3-21-67 26.2 8.66 37.99 45.08 21 67m-16 4c-26.41-8.65-38.07-45.01-21-67-1.34 25.04 24.06 41.3 21 67m104-46c-9.98 3.95-23.03 3.03-31.75 11.25-8.71 8.23-20.15 11.5-32.25 10.75 6.02-26.02 43.2-39.99 64-22m4 16c-5 26.72-45.82 42.31-64 21 25.24 3.61 39.28-23.12 64-21Z" fill="none" stroke="#000" stroke-width=".3"/><path d="M265 249c-9.08-.75-18.42 2.04-25.25 7.75-6.82 5.72-9.08 12.4-12.97 20.03-3.89 7.62 6.07 11.9 11.22 17.22 7.84-15.74 11.89-33.17 27-45Z" fill="none" stroke="#95502E" stroke-width=".3"/><path d="M278 259c-7.07 7.29-17.92 14.11-19.02 24.98-1.11 10.86-12.94 18.91-11.98 29.02 7.23-8.65 18.95-10.25 26.7-18.3 7.74-8.06 6.4-25.79 4.3-35.7Z" fill="none" stroke="#783B1D" stroke-width=".3"/><path d="M228 358c16.99-21.92 5.2-58.34-21-67-2.91 25.7 22.95 41.71 21 67Z" fill="none" stroke="#794026" stroke-width=".3"/><path d="M212 362c3.06-25.7-22.34-41.96-21-67-17.07 21.99-5.41 58.35 21 67Zm104-46c-20.8-17.99-57.98-4.02-64 22 12.1.75 23.54-2.52 32.25-10.75 8.72-8.22 21.77-7.3 31.75-11.25Z" fill="none" stroke="#95502D" stroke-width=".3"/><path d="M320 332c-24.72-2.12-38.76 24.61-64 21 18.18 21.31 59 5.72 64-21Z" fill="none" stroke="#783B1D" stroke-width=".3"/><path d="M234 373c2.32-1.72 4.11-3.78 6-6-1.78 1.78-4.08 4.33-6 6Z" fill="none" stroke="#764E23" stroke-width=".3"/><path d="M388 393c-4.7 3.29-15.04-1.48-21 0s-14.47-.67-21 0-14.21-.3-21 0-14.1-.13-21 0-14.05-.06-21 0-14.03-.02-21 0-14.03.01-21 0-14.05.05-21 0-14.1.12-21 0-14.22.28-21 0-14.49.62-21 0-15.09 1.37-21 0-15.45 3.22-20 0c5.04 5.09 19.45-.69 27 1s18.55-.73 27 0 19.2-.33 28 0 18.07-.13 27 0 17.99 0 27 0 19.01.11 28 0 18.18.31 27 0 19.55.69 28 0 19.47 1.59 27 0 20.98 4.02 26-1Z" fill="none" stroke="#764F24" stroke-width=".3"/><path d="M386 409H118c-1.68 16.05 6.34 24.94 22 23s29.68.81 45 0 29.81.23 45 0 29.81-.19 45 0c15.19.2 29.68-.75 45 0s29.34-1.81 45 0 22.73-7.22 21-23Z" fill="none" stroke="#FB8D16" stroke-width=".3"/><path d="M367 447H138c-.49 23.98 7.46 47.89 35 46s52.76.13 80 0 52.67-1.54 80 0 34.19-22.69 34-46Z" fill="none" stroke="#DEDEDE" stroke-width=".3"/><path d="M0 512h512V0H0v512M417 58c10.86 4.55 29.45-7.28 38.25 2.75 8.79 10.03-1.28 25.89 2.75 39.25s-10.38 23.26-24 18c2.05 17.94-13.27 38.19-6.25 55.25 7.03 17.05 2.36 36.04-.74 54.76s-5.1 39.22-8.01 57.99-5.19 38.43-8 57-5.66 39.62-8.33 57.67-1.2 38.38-20.67 45.33c-.86 10.71-2.55 22.91-4.93 33.07-2.37 10.17-7.04 15.92-15.77 22.23-8.72 6.32-19.69 6.96-31.3 6.7s-25.88.1-38 0-25.74.01-38 0-25.86-.07-38 0-26.34-.2-38 0-23.39.14-32.69-5.31c-9.31-5.44-12.7-12.25-17.08-20.92s-.39-25.96-5.21-33.79c-4.81-7.84-16.87-9.06-17.02-20.98-.14-11.93-4.43-21.46-5-33-.57-11.55-3.88-21.71-4.98-33.02-1.09-11.32-3.07-22.11-4.8-33.2S88.69 305.03 87 294s-3.71-21.93-5-33c-1.29-11.08-3.51-22.06-4.98-33.02-1.46-10.96-2.8-22.59-4.8-33.2S73.23 171.49 84 168c-.64-17-4.49-33.2-6-50-13.79 5.59-27.82-5.05-24-18s-5.89-30.71 3.25-39.75 28.91 4.16 34.5-8.5c5.6-12.65 8.8-15.43 15.55-26.45 6.76-11.01 23.66-5.16 35.7-7.3s28.23-.46 41-2 26.79-1.23 40-2 26.65-2.26 40.02-2.98c13.38-.71 27.72-.7 40.98-2.02s26.77-.58 40-2 27.79-.76 41-2 13.27 12.96 18.31 22.69c5.03 9.73 8.45 20.26 12.69 30.31Z" fill-opacity=".01" stroke="None"/><path d="M417 58c-4.24-10.05-7.66-20.58-12.69-30.31C399.27 17.96 399.21 3.76 386 5s-27.77.58-41 2-26.74.68-40 2-27.6 1.31-40.98 2.02c-13.37.72-26.81 2.21-40.02 2.98s-27.23.46-40 2-28.96-.14-41 2-28.94-3.71-35.7 7.3c-6.75 11.02-9.95 13.8-15.55 26.45-5.59 12.66-25.36-.54-34.5 8.5S57.82 87.05 54 100s10.21 23.59 24 18c1.51 16.8 5.36 33 6 50-10.77 3.49-13.78 16.17-11.78 26.78s3.34 22.24 4.8 33.2c1.47 10.96 3.69 21.94 4.98 33.02 1.29 11.07 3.31 21.97 5 33s2.49 22.69 4.22 33.78 3.71 21.88 4.8 33.2c1.1 11.31 4.41 21.47 4.98 33.02.57 11.54 4.86 21.07 5 33 .15 11.92 12.21 13.14 17.02 20.98 4.82 7.83.83 25.12 5.21 33.79s7.77 15.48 17.08 20.92c9.3 5.45 21.03 5.51 32.69 5.31s25.86.07 38 0 25.74-.01 38 0 25.88-.1 38 0 26.39-.26 38 0 22.58-.38 31.3-6.7c8.73-6.31 13.4-12.06 15.77-22.23 2.38-10.16 4.07-22.36 4.93-33.07 19.47-6.95 18-27.28 20.67-45.33s5.52-39.1 8.33-57.67 5.09-38.23 8-57 4.91-39.27 8.01-57.99 7.77-37.71.74-54.76c-7.02-17.06 8.3-37.31 6.25-55.25 13.62 5.26 28.03-4.64 24-18s6.04-29.22-2.75-39.25c-8.8-10.03-27.39 1.8-38.25-2.75m-17-1H106c3.79-7.99 9.54-15 13-23 13.51.93 25.88-1.56 39.07-1.93S184.97 30.89 198 30s26.06-.97 39-2 27.18-1.12 40-2 26.4-1.67 39-2 26.99-3.07 39-3 28.56-5.53 32.92 6.08C392.29 38.68 396.94 45.4 400 57m43 16v30H69V73h374m-24 46c-1.62 4.4-1.25 10.18-2.33 14.67s-.86 10.27-2.65 14.35c-1.78 4.09.74 12.79-2.02 15.98-3.23 3.75-18.1.38-22 0H99c-1.39-15.14-4.24-29.93-6-45 2.76-4.21 14.39.17 20-1s15.45.53 22 0 15.02.24 22 0 14.83.11 22 0 14.76.05 22 0 14.74.02 22 0 14.77.01 22 0 13.76 0 21 0h22c7.29 0 14.69-.01 22 0s14.69-.02 22 0 14.71-.05 22 0 14.76-.12 22 0 14.87-.26 22 0 14.77-1.02 21 1m-8 61c2.48.75 8.92 4.1 6.99 8.01-1.92 3.9.71 11.01-1.99 13.99-4.32 4.76-17.14-.48-24 1s-17.21-.64-25 0-17.83-.3-26 0-16.64-.13-25 0-17.57-.06-26 0-16.54-.02-25 0-17.54.01-26 0-16.58.05-25 0-17.66.12-26 0-16.88.27-25 0-18.32.58-26 0-18.4 1.34-25 0-20.88 3.78-24-2c-3.48-6.46-2.12-18.75 5-21 18.95-5.99 42.53.9 63-1s43.18.54 64 0 43.17-.47 64 0 43.49-1.79 64 0 44.01-4.76 63 1m-23 213c-5.02 5.02-18.47-.59-26 1s-18.55-.69-27 0-19.18-.31-28 0-18.01-.11-27 0-18.99 0-28 0-18.07.13-27 0-18.2.33-27 0-19.55.73-28 0-19.45 1.69-27 0-21.96 4.09-27-1c-4.38-4.43-1.23-15.55-3.33-21.67s-2.12-14.73-3.45-21.55c-1.32-6.82-1.87-14.79-3.15-21.85s-1.84-14.93-2.85-22.15-1.99-14.65-3.15-21.85c-1.15-7.21-1.75-14.75-3.05-21.95-1.29-7.21-1.7-14.76-3.01-21.99-1.32-7.23-1.84-14.7-3.01-21.99h322c-7.21 58.52-16.09 117.28-25 175m-2 16c1.73 15.78-5.34 24.81-21 23s-29.68.75-45 0-29.81.2-45 0c-15.19-.19-29.81-.23-45 0s-29.68-.81-45 0-29.34-1.94-45 0-23.68-6.95-22-23h268m-19 38c.19 23.31-6.67 47.54-34 46s-52.76-.13-80 0-52.46-1.89-80 0-35.49-22.02-35-46z" stroke="None"/><path d="M400 57c-3.06-11.6-7.71-18.32-12.08-29.92-4.36-11.61-20.91-6.01-32.92-6.08s-26.4 2.67-39 3-26.18 1.12-39 2-27.06.97-40 2-25.97 1.11-39 2-26.74 1.7-39.93 2.07S132.51 34.93 119 34c-3.46 8-9.21 15.01-13 23z" fill="#2E2A2A" stroke="None"/><path d="M443 73H69v30h374z" fill="#3C3939" stroke="None"/><path d="M93 119h326c-6.23-2.02-13.87-.74-21-1s-14.76.12-22 0-14.71.05-22 0-14.69.02-22 0-14.69.01-22 0-14.71 0-22 0h-22c-7.24 0-13.77-.01-21 0s-14.74-.02-22 0-14.76-.05-22 0-14.83-.11-22 0-15.02-.24-22 0-15.45-.53-22 0-16.39-1.17-22 0-17.24-3.21-20 1Z" fill="#686868" stroke="None"/><path d="M390 164h22c2.76-3.19.24-11.89 2.02-15.98 1.79-4.08 1.57-9.86 2.65-14.35s.71-10.27 2.33-14.67H93c1.76 15.07 4.61 29.86 6 45z" fill="#DFDFDF" stroke="None"/><path d="M412 164h-22c3.9.38 18.77 3.75 22 0Z" fill="#696969" stroke="None"/><path d="M93 180c20.41-3.66 42.18 1.5 63 0s43.02.43 64 0 41.98-.4 63 0 43.04-1.46 64 0 43.35-3.49 64 0c-18.99-5.76-42.49.79-63-1s-43.17.47-64 0-43.18-.54-64 0-43.53-1.9-64 0-44.05-4.99-63 1Z" fill="#653908" stroke="None"/><path d="M88 201c3.35 4.37 14.27-.24 20 1s15.39-.56 22 0 14.99-.25 22 0 14.81-.11 22 0 14.73-.05 22 0 14.7-.02 22 0 14.68-.01 22 0 14.67 0 22 0h154c2.7-2.98.07-10.09 1.99-13.99 1.93-3.91-4.51-7.26-6.99-8.01-20.65-3.49-43.04 1.46-64 0s-42.98.4-64 0-42.02-.43-63 0-43.18-1.5-64 0-42.59-3.66-63 0c-7.12 2.25-8.48 14.54-5 21Z" fill="#FE8F16" stroke="None"/><path d="M416 202H262c-7.33 0-14.68.01-22 0s-14.7.02-22 0-14.73.05-22 0-14.81.11-22 0-14.99.25-22 0-15.39.56-22 0-16.27 1.24-22 0-16.65 3.37-20-1c3.12 5.78 17.4.66 24 2s17.32-.58 25 0 17.88-.27 26 0 16.66-.12 25 0 17.58-.05 26 0 16.54-.01 25 0 17.54.02 26 0 16.57.06 25 0 17.64.13 26 0 16.83.3 25 0 18.21.64 26 0 18.14 1.48 25 0 19.68 3.76 24-1Z" fill="#874C0B" stroke="None"/><path d="M116 393c4.55 3.22 14.09-1.37 20 0s14.49-.62 21 0 14.22-.28 21 0 14.1-.12 21 0 14.05-.05 21 0 14.03-.01 21 0 14.03.02 21 0 14.05.06 21 0 14.1.13 21 0 14.21.3 21 0 14.47.67 21 0 15.04 1.48 21 0 16.3 3.29 21 0c8.91-57.72 17.79-116.48 25-175H91c1.17 7.29 1.69 14.76 3.01 21.99 1.31 7.23 1.72 14.78 3.01 21.99 1.3 7.2 1.9 14.74 3.05 21.95 1.16 7.2 2.14 14.63 3.15 21.85s1.57 15.09 2.85 22.15 1.83 15.03 3.15 21.85c1.33 6.82 1.35 15.43 3.45 21.55S111.62 388.57 116 393m124-26c-1.89 2.22-3.68 4.28-6 6-25.37 18.87-56.11-11.37-63.32-35.68-7.22-24.31 3.92-72 40.32-61.32 7.87-23.56 24.65-42.27 52-43s40.52 37.24 28 60c19.35-2.29 45.8 11.87 45.93 33.07.12 21.2-15.56 37.47-33.62 46.24-18.07 8.76-45.7 8.09-59.31-9.31-1.57.96-3.25 2.32-4 4Z" fill="#FEA84C" stroke="None"/><path d="M234 373c1.92-1.67 4.22-4.22 6-6 .75-1.68 2.43-3.04 4-4 13.61 17.4 41.24 18.07 59.31 9.31 18.06-8.77 33.74-25.04 33.62-46.24-.13-21.2-26.58-35.36-45.93-33.07 12.52-22.76-.65-60.73-28-60s-44.13 19.44-52 43c-36.4-10.68-47.54 37.01-40.32 61.32 7.21 24.31 37.95 54.55 63.32 35.68m31-124c-15.11 11.83-19.16 29.26-27 45-5.15-5.32-15.11-9.6-11.22-17.22 3.89-7.63 6.15-14.31 12.97-20.03 6.83-5.71 16.17-8.5 25.25-7.75m13 10c2.1 9.91 3.44 27.64-4.3 35.7-7.75 8.05-19.47 9.65-26.7 18.3-.96-10.11 10.87-18.16 11.98-29.02 1.1-10.87 11.95-17.69 19.02-24.98m-50 99c1.95-25.29-23.91-41.3-21-67 26.2 8.66 37.99 45.08 21 67m-16 4c-26.41-8.65-38.07-45.01-21-67-1.34 25.04 24.06 41.3 21 67m104-46c-9.98 3.95-23.03 3.03-31.75 11.25-8.71 8.23-20.15 11.5-32.25 10.75 6.02-26.02 43.2-39.99 64-22m4 16c-5 26.72-45.82 42.31-64 21 25.24 3.61 39.28-23.12 64-21Z" stroke="None"/><path d="M265 249c-9.08-.75-18.42 2.04-25.25 7.75-6.82 5.72-9.08 12.4-12.97 20.03-3.89 7.62 6.07 11.9 11.22 17.22 7.84-15.74 11.89-33.17 27-45Z" fill="#95502E" stroke="None"/><path d="M278 259c-7.07 7.29-17.92 14.11-19.02 24.98-1.11 10.86-12.94 18.91-11.98 29.02 7.23-8.65 18.95-10.25 26.7-18.3 7.74-8.06 6.4-25.79 4.3-35.7Z" fill="#783B1D" stroke="None"/><path d="M228 358c16.99-21.92 5.2-58.34-21-67-2.91 25.7 22.95 41.71 21 67Z" fill="#794026" stroke="None"/><path d="M212 362c3.06-25.7-22.34-41.96-21-67-17.07 21.99-5.41 58.35 21 67Zm104-46c-20.8-17.99-57.98-4.02-64 22 12.1.75 23.54-2.52 32.25-10.75 8.72-8.22 21.77-7.3 31.75-11.25Z" fill="#95502D" stroke="None"/><path d="M320 332c-24.72-2.12-38.76 24.61-64 21 18.18 21.31 59 5.72 64-21Z" fill="#783B1D" stroke="None"/><path d="M234 373c2.32-1.72 4.11-3.78 6-6-1.78 1.78-4.08 4.33-6 6Z" fill="#764E23" stroke="None"/><path d="M388 393c-4.7 3.29-15.04-1.48-21 0s-14.47-.67-21 0-14.21-.3-21 0-14.1-.13-21 0-14.05-.06-21 0-14.03-.02-21 0-14.03.01-21 0-14.05.05-21 0-14.1.12-21 0-14.22.28-21 0-14.49.62-21 0-15.09 1.37-21 0-15.45 3.22-20 0c5.04 5.09 19.45-.69 27 1s18.55-.73 27 0 19.2-.33 28 0 18.07-.13 27 0 17.99 0 27 0 19.01.11 28 0 18.18.31 27 0 19.55.69 28 0 19.47 1.59 27 0 20.98 4.02 26-1Z" fill="#764F24" stroke="None"/><path d="M386 409H118c-1.68 16.05 6.34 24.94 22 23s29.68.81 45 0 29.81.23 45 0 29.81-.19 45 0c15.19.2 29.68-.75 45 0s29.34-1.81 45 0 22.73-7.22 21-23Z" fill="#FB8D16" stroke="None"/><path d="M367 447H138c-.49 23.98 7.46 47.89 35 46s52.76.13 80 0 52.67-1.54 80 0 34.19-22.69 34-46Z" fill="#DEDEDE" stroke="None"/></svg>