<svg xmlns="http://www.w3.org/2000/svg" viewBox="233.68 168.947 512 618.31" width="512" height="618.31" preserveAspectRatio="none"><path d="M237.514 467.439a1203 1203 0 0 1-2.356-18.801 28 28 0 0 1-.101-4.842c.348-5.869 1.444-6.777 7.356-6.19 1.731.17 3.459.373 5.174.662 3.083.516 5.901.229 8.345-2.021 1.973-1.82 4.652-2.272 7.44-3.341-1.937-2.253-4.557-4.117-3.618-7.53.79-2.861 2.629-5.088 4.522-7.205 4.647-5.201 9.657-10.033 15.321-14.143.503-.365.969-.926 1.526-1.046 4.725-1.036 8.376-3.148 11.047-7.588 1.706-2.838 6.016-2.482 9.135-.396 3.123 2.088 4.23 4.76 2.566 8.312-.266.562-.442 1.163-.681 1.738-2.425 5.844-3.574 6.44-9.372 4.869-1.866 3.125-1.492 9.584.74 12.064 4.308 4.79 9.288 9.001 12.663 14.604.509.845 1.377 1.019 2.274 1.017q14.919-.027 29.838-.096c.34 0 .681-.229 1.105-.382-.029-1.983-1.226-3.486-2.05-5.087-1.61-3.123-1.063-5.301 2.142-7.062 4.57-2.515 8.982-5.318 13.451-8.02 3.193-1.929 5.117-4.702 5.272-8.49.222-5.492 1.411-11.014-2.568-16.021-2.698-3.392-1.891-7.27.495-10.77 5.962-8.741 12.971-16.692 19.17-25.222 5.991-8.238 13.804-11.546 23.45-12.173 2.822-.184 5.628-.943 8.391-1.643 4.471-1.128 7.542-.023 10.274 3.932 2.509 3.633 2.538 7.159-.178 10.676-1.746 2.256-3.752 4.312-5.647 6.454-1.094 1.237-2.107 1.22-3.54.251-4.094-2.784-8.492-.778-9.542 4.205-2.297 10.921-2.222 21.666 1.851 32.265 1.333 3.465 2.782 7.142 1.258 11.097-2.124-.193-2.411-1.916-3.077-3.098-3.297-5.849-6.572-11.695-10.643-17.074-2.149-2.838-2.947-6.257-3.193-9.798-.09-1.325.243-2.729-.828-4.406-3.226 2.26-6.482 4.329-8.936 7.28.346 1.551 1.482 1.989 2.427 2.473 5.918 3.037 9.42 8.745 14.324 12.896 1.243 1.052.553 2.52.293 3.857-1.595 8.177-2.815 16.399-3.224 24.733-.117 2.402.44 4.065 3.012 4.763 1.813.49 3.473 1.44 4.427 3.193.811 1.49 2.195 1.444 3.564 1.461 14.667.189 29.337.382 44.004.545 1.333.017 2.778.237 3.865-1.025.21-1.782-.948-3.048-1.989-4.197-1.962-2.167-1.442-3.706.451-5.687 5.414-5.658 10.406-11.724 15.936-17.26 7.46-7.463 11.288-16.837 14.879-26.406.786-2.094 1.35-4.287 2.3-6.299 1.956-4.128 2.386-8.047.373-12.426-1.998-4.35.545-8.764.916-13.16.235-2.805 1.537-5.496 1.033-8.653-1.796.589-2.235 2.09-2.884 3.331-3.685 7.071-6.574 14.477-9.334 21.947-.476 1.296-.667 3.188-2.87 2.62-2.327-.6-1.754-2.287-1.362-3.899 2.369-9.783 4.652-19.587 8.182-29.043 1.379-3.696 3.333-6.746 6.655-9.15 4.213-3.052 7.66-7.058 11.471-10.592 9.003-8.353 17.738-17.03 27.469-24.589 3.358-2.606 6.601-2.425 10.032-.518 1.409.786 2.752 1.694 4.102 2.583 4.916 3.237 5.618 7.733 1.868 12.502-2.687 3.417-5.561 6.685-8.209 10.131-2.176 2.836-4 .807-5.708-.35-3.836-2.599-4.461-2.541-7.056 1.34-1.981 2.964-2.298 6.247-1.912 9.659.126 1.107.272 2.258.685 3.278 5.203 12.8 4.838 26.503 6.509 39.874.229 1.838.163 3.725.132 5.584-.021 1.262-.193 2.713-1.692 2.964-1.744.293-2.207-1.247-2.719-2.516a5.7 5.7 0 0 1-.312-1.075c-1.901-9.64-4.744-19.004-8.077-28.242-.876-2.421-1.132-5.065-1.924-8.779-4.553 9.477-10.588 16.814-6.36 27.964 7.905 20.839 16.617 41.26 26.676 61.128.337.665.801 1.296.985 2.006.887 3.402 2.713 5.033 6.461 4.134 1.379-.329 3.017-.122 4.417.27 8.301 2.331 16.642 2.04 25.073.872 5.872-.813 11.825-1.855 17.698-1.625 4.895.191 9.75 1.469 14.776 1.287 24.345-.882 48.706-1.421 73.039-2.557 5.54-.258 10.232.495 14.713 3.668 2.201 1.558 4.738 2.681 8.108 2.314-2.624-5.798-6.133-10.708-9.41-15.73a4381 4381 0 0 0-25.293-38.277c-3.253-4.876-5.796-10.142-8.731-15.191-4.746-8.154-9.907-8.714-15.998-1.484-6.165 7.314-11.76 15.112-17.962 22.398-10.712 12.59-21.685 24.958-32.598 37.374-1.082 1.233-2.344 3.213-4.285 1.987-1.91-1.207-1.199-3.394-.587-5.13 1.43-4.046 4.19-7.31 6.658-10.731 3.855-5.347 7.58-10.733 10.173-16.883 1.841-4.375 5.035-7.968 8.278-11.427 8.752-9.332 15.65-19.922 21.306-31.349 5.871-11.858 5.825-24.735 6.272-37.508.233-6.758-1.717-13.286-2.352-19.956-.222-2.314-1.899-2.23-3.543-2.323-5.744-.329-11.427.382-17.101 1.036-3.855.444-7.674.74-11.506-.042-2.966-.604-4.404.499-5.347 3.52-3.216 10.32-4.008 20.941-4.597 31.617-.304 5.475-1.054 10.879-2.928 16.072-.47 1.296-.971 2.603-2.04 3.507-1.189 1.008-2.39.956-2.847-.715a13.4 13.4 0 0 1-.459-4.05c.935-18.516.574-37.044.581-55.565.002-8.339 4.689-13.73 12.984-14.12 14.896-.698 29.804-1.207 44.706-1.797 1.363-.055 2.968.289 4.048-.306 5.683-3.134 10.752-1.126 16.372.685 11.303 3.647 23.012 3.794 34.577.851 6.35-1.616 8.464-4.62 8.62-11.756.092-4.088.004-8.259-.715-12.261-1.78-9.947 1.262-18.95 4.863-27.867 2.258-5.591 4.295-11.116 3.021-17.33-.44-2.134.585-4.046 2.746-4.754 2.346-.769 2.895 1.193 3.549 2.834.926 2.323 2.65 1.882 3.758.555 1.692-2.031 3.777-2.136 6.043-2.157 6.962-.076 13.921.05 20.866.566 3.329.247 4.075 1.254 2.666 4.268-1.413 3.039-2.977 6.045-4.838 8.813-3.475 5.176-8.003 6.739-13.955 5.261-1.304-.325-2.209-1.174-2.935-2.172-2.74-3.769-6.198-5.999-11.615-5.276-.294 4.025-.799 8.289-.878 12.559-.354 19.019-.583 38.04-.866 57.063-.088 5.888-1.404 7.527-7.314 8.115-9.278.926-18.635.323-27.926 1.296-6.173.646-12.385.92-18.583 1.327-1.943.128-2.933.947-2.817 3.04.801 14.508.14 29.091 2.182 43.53.803 5.681 4.052 10.378 6.756 15.244 15.227 27.398 29.729 55.152 41.805 84.115 3.649 8.75 6.477 17.732 7.538 27.207.136 1.216.746 2.553-.727 3.312-1.602.822-2.759-.214-3.367-1.444-1.667-3.373-4.804-2.935-7.706-3.371-11.198-1.685-22.406-2.899-33.774-2.679-31.324.606-62.656 1.029-93.984 1.541-8.202.136-16.405.415-24.607.48-4.511.033-8.957.011-12.95 2.58-1.082.696-2.434.849-3.622.545-5.199-1.335-10.381-.602-15.567-.063-6.394.665-12.602-.801-18.887-1.493-9.764-1.075-19.593-1.279-29.41-1.325-17.535-.082-35.072-.182-52.605.029-31.825.377-63.652.811-95.472 1.574-10.064.243-20.132.379-30.2.627-.744.019-1.589-.157-2.22.126-9.024 4.046-18.591 2.551-27.964 2.673-5.76.076-11.099.686-15.556 4.863-2.151 2.012-3.853 1.383-4.333-1.65-.369-2.327-.675-4.662-1.092-7.314m218.101-34.017c.947 2.201 1.205 5.029 4.612 4.955 7.81-.166 15.613.107 23.434-.335 8.892-.503 17.799-1.815 26.746-.503 1.736.256 3.616.509 5.658-.627-6.291-16.61-18.287-29.863-24.746-46.159-2.285 5.165-4.109 10.144-5.848 15.151-1.275 3.675-3.61 6.329-6.886 8.456-6.655 4.325-13.674 8.087-19.983 12.944-1.849 1.423-3.367 2.968-2.989 6.119m-100.967-6.98c-2.067.851-4.128 1.721-6.205 2.549-3.016 1.199-1.845 3.715-1.717 5.784.124 2.008 1.327 2.975 3.497 2.962 7.706-.057 15.413 0 23.119.05 1.763.011 2.769-.514 3.708-2.285 3.392-6.391 3.658-13.365 4.169-20.264.484-6.57-1.017-8.035-8.066-8.965-1.071 1.48-1.597 3.304-1.916 5.085-1.298 7.255-4.75 12.364-12.571 13.567-1.199.184-2.325.859-4.018 1.516m-71.324 3.842c1.589.872 3.184 1.738 4.429 3.201l-4.681-13.344c-3.352 1.321-5.899 2.664-7.894 5.148 2.35 2.233 5.306 3.012 8.146 4.995m18.078 6.222c-1.993-2.081-3.974-4.172-6.823-5.322-.403 6.012 1.645 7.637 6.823 5.322m24.788 311.765c38.028.618 75.659 2.759 113.339 2.042 9.563-.182 19.036-1.906 28.636-1.645 2.459.071 4.853-.717 7.01-2.184 2.268-1.539 4.863-2.48 7.5-3.257 1.363-.402 2.767-.556 3.989.195 8.595 5.278 18.482 5.821 27.886 5.897 57.447.461 114.9.279 172.351.358 4.19.004 8.071-.845 11.902-2.564 3.844-1.725 7.88-3.031 11.846-4.48 1.27-.465 2.58-.971 3.932-.224.059.262.243.608.151.717-4.985 5.796-2.769 12.535-2.266 18.921.501 6.318 1.17 12.613 1.184 18.952.011 5.49-1.608 6.825-7.092 6.056-1.595-.222-3.209-.415-4.817-.44-26.607-.379-53.213-.589-79.814-1.119-34.688-.688-69.381-.317-104.069-.746-66.025-.817-132.052-.832-198.076-.258-13.699.122-27.286-.101-40.916-1.36-7.213-.664-14.313 1.277-21.327 2.972-3.941.954-7.813 1.513-11.598-.61-.608-.344-1.444-.438-2.161-.405-7.154.319-10.028-2.289-10.068-9.368-.05-8.332.04-16.663-.031-24.995-.027-2.926.918-4.475 4.125-4.079 2.585.317 5.27.094 7.785.667 10.274 2.341 20.493 1.254 30.747-.029 8.049-1.006 16.132-1.124 24.167.061 8.416 1.239 16.87.807 25.687.922m188.997 17.16 1.912-6.02c-1.549-.608-2.91-.753-4.295.011 1.082 3.205.415 6.081-.704 9.603-1.769-2.18-1.752-4.354-2.358-6.268-.361-1.145-.233-2.777-1.87-2.826-1.761-.055-1.91 1.633-2.385 2.886-.706 1.864-.379 4.165-2.379 5.89-1.752-3.243-1.033-6.406-.771-9.575-1.947-.243-3.616-.553-5.425.31 1.667 4.052 2.088 8.268 3.207 12.309.306 1.105.511 2.251 1.972 2.321 1.413.067 1.83-.983 2.31-2.04.717-1.589.629-3.635 2.36-4.819 1.581 1.436 1.528 3.325 2.249 4.857.493 1.056.899 2.1 2.323 1.994 1.214-.09 1.639-1.012 1.928-1.989.604-2.023 1.163-4.058 1.926-6.645m22.813-6.513c-.866-.048-1.729-.126-2.595-.138-3.501-.046-6.138 1.545-7.154 4.83-.975 3.155-.958 6.494 1.92 8.901 2.694 2.256 5.748 2.023 8.748.643 2.798-1.287 3.947-3.849 4.035-6.651.099-3.232-.918-6.148-4.955-7.586m-118.841 15.187c1.266-.338 1.176-.992.501-1.885-1.763-2.335-2.364-4.633-.78-7.517 1.199-2.184.057-4.146-2.293-5.016-2.93-1.084-5.905-1.071-8.919-.191 1.413 4.878.843 9.513.417 14.428 1.622.256 3.102.623 4.574-.317-.044-1.71-1.744-3.387.254-4.825 1.843.359 2.14 1.972 2.7 3.274.602 1.405 1.415 2.308 3.545 2.05m222.803-10.42c.499-5.041.499-5.041-3.932-4.291 1.639 4.677.071 9.4.231 14.149 1.442.681 2.832.849 4.276-.205.136-1.706-1.53-3.664.356-5.144 1.033-.813 2.417-.74 3.553-.153 2.427 1.254.912 3.45.969 5.251 1.434.591 2.71.637 4.138-.266-.545-4.566-.277-9.198-.071-13.81-1.453-.289-2.662-.629-3.553.184-.885 2.413 1.799 5.681-2.01 6.873-1.585.497-3.61.627-3.958-2.587m-174.926 9.934c4.182 1.212 8.337-.585 12.842.195-5.414-2.78-.512-5.375-.174-8.087-1.304.008-2.381-.402-3.549.411-.046.904.927 2.18-.631 2.832-1.277-.291-2.146-1.067-2.668-2.385.694-1.748 3.071-3.597.44-5.421-2.031-1.407-4.312-1.057-6.148.637-1.469 1.354-1.801 9.716-.113 11.818m91.33-12.387c.136 4.146.541 8.307-.686 12.439 1.822.331 3.507.74 5.037-.616-.593-1.608-1.587-3.19.124-4.907 1.914.673 2.13 2.578 2.91 3.998 1.218 2.224 2.723 1.845 4.691.866-2.05-3.096-4.501-5.62-1.509-9.412 1.323-1.677-.532-3.547-2.407-4.239-2.358-.868-4.878-.696-7.347-.386-.918.115-1.13.828-.813 2.256M259.934 771.96l-2.503-4.643c1.383-1.884 3.538-3.878 1.547-6.19-2.824-3.281-6.687-1.973-10.448-2.015 1.253 5.192 1.172 9.907.126 14.667 1.495.618 2.903.556 4.436-.011.105-1.727-1.843-3.773.608-5.213 2.052.926 1.958 3.146 3.069 4.564 1.052 1.342 2.461 1.285 3.693.853 1.18-.415.13-1.115-.528-2.012m324.787-11.745c1.057 4.589.541 9.213.092 13.921 1.434.042 2.66.396 3.868-.354-.143-1.696-1.593-3.545.528-5.073 3.316 1.025 4.675 5.88 9.156 4.907-2.224-2.713-5.404-4.979-5.844-8.125-.386-2.742 3.52-4.111 4.983-6.526.052-.088.004-.237.004-.566-4.543-.631-5.217 4.66-8.525 5.821-1.878-1.874.338-3.899-.595-5.957-1.245.656-3.32-1.507-3.668 1.952m82.685-.382c-3.559 3.063-4.54 6.452-2.893 10.123 1.472 3.287 4.142 4.455 7.555 3.987 4.794-.652 7.693-4.945 6.672-9.708-1.048-4.897-4.84-6.53-11.334-4.402m-380.967.059c-2.323-1.329-4.756-1.254-7.165-.379-3.624 1.316-5.283 5.046-4.364 9.55.729 3.553 3.06 5.232 6.997 5.178 3.3-.046 5.871-1.296 6.962-4.501 1.18-3.465 1.117-6.842-2.43-9.848m97.588-.874c-1.048.117-1.939.182-1.522 1.763 1.136 4.327.736 8.689-.296 13.405 2.809 0 5.383.038 7.955-.011 2.742-.05 2.465-1.731 2.604-4.06-2.266 1.241-3.226 3.769-5.436 2.1-1.111-.841-.985-2.264-.597-3.452.847-2.603 2.75-.004 4.012-.65.476-1.144.564-2.184-.258-3.207-1.205-.168-2.513 1.83-3.584.034-.654-1.098-.677-2.515.256-3.48 1.916-1.989 3.123 1.144 4.949.908.711-2.205.117-3.383-2.298-3.36-1.734.017-3.465-.002-5.784.01m229.41 15.112c4.218 1.113 7.706.073 8.645-2.731 1.054-3.151-.21-5.262-3.214-6.503-1.22-.503-2.756-.79-2.826-2.551-.038-.971.528-1.639 1.44-1.943 1.864-.623 2.079 1.4 3.182 2.002.187.105.465.05.891.084.948-1.35.958-2.733-.356-3.844-1.488-1.258-6.178-.222-7.553 1.522-1.608 2.037-1.069 5.268 1.216 6.842 1.015.702 2.193 1.165 3.209 1.864 1.048.721 1.467 1.813.608 2.884-.906 1.132-2.113 1.176-3.295.3-.841-.62-.74-2.237-2.442-2.146-1.174 1.26-.818 2.58.495 4.218m-307.451-.034c2.054-.34-.065-2.887 1.901-3.446 3.073-.868 4.245.566 4.295 3.356 1.688.071 3.169.665 4.442-.516-1.335-3.924-2.645-7.767-3.947-11.611-.428-1.277-.621-2.838-2.432-2.798-1.736.038-2.021 1.578-2.503 2.824-1.507 3.893-2.993 7.79-4.543 11.84.577.616 1.467.388 2.788.35m27.025-3.077c-.918-.809-1.83-1.105-2.092.47-.218 1.302.113 2.367 1.75 2.733 3.262.723 7.167-.7 7.957-3.245 1.098-3.526-1.333-4.886-3.991-5.989-1.069-.444-2.058-.96-2.172-2.258-.073-.828.428-1.425 1.14-1.752 1.53-.702 2.23.415 2.985 1.425.329.438.801.535 1.321.291.147-.189.409-.367.425-.566.111-1.411.115-2.88-1.727-3.121-2.53-.333-5.008-.205-6.697 2.124-1.105 1.524-1.451 3.149-.145 4.769.966 1.197 2.346 1.769 3.683 2.425 1.413.692 2.824 1.669 1.635 3.394-1.178 1.704-2.56.847-4.071-.7m105.226-1.415-.732 4.362c1.952.254 3.727.436 5.589-.178-3.92-6.287 2.93-9.508 3.966-14.535-1.438-.161-2.629-.576-3.794.455.054 2.23.256 4.597-2.323 5.93-1.998-1.75-2.102-3.956-2.046-6.274-1.797-.44-3.44-.667-5.318.281 1.572 3.218 3.077 6.299 4.658 9.959m253.79-1.071c.073 1.585-.054 3.148-.933 4.716 1.715.671 3.073.935 4.656-.17-1.348-3.511.184-5.308 3.626-6.414 1.796-.574 3.562-2.073 3.186-4.452-.275-1.725-1.599-2.901-3.3-3.088-2.629-.285-5.316-.679-8.131.228 1.304 2.865.788 5.714.897 9.181m-337.368-6.876c1.759 4.174 2.465-2.287 4.725.901a17.6 17.6 0 0 1-1.186 11.756c2.266-.4 4.081.329 5.853-.608-2.199-4.354-.952-8.387-.491-12.28 2.197-.314 2.115 2.102 3.723 1.585.809-3.09.675-3.805-1.256-3.926-3.211-.203-6.444-.071-9.666-.013-1.262.021-1.616.956-1.702 2.585"/><path d="M391.052 602.733c-12.529 10.471-26.419 12.385-41.057 6.63-14.46-5.685-21.308-17.512-22.495-32.456-1.658-20.834-.665-41.736-.53-62.604.063-9.129 2.153-18.059 7.861-25.599 9.584-12.655 22.775-16.416 37.763-13.948 15.355 2.528 24.976 12.003 29.158 26.928 1.446 5.159 2.046 10.466 2.04 15.839-.013 17.279.036 34.558-.025 51.835-.019 5.475-.599 10.913-2.22 16.181-2.008 6.526-5.22 12.338-10.494 17.195m-23.312-75.699c-.002-2.731.065-5.463-.023-8.194-.075-2.249.639-5.654-2.511-5.649-2.87.006-2.247 3.354-2.255 5.459q-.078 24.578.002 49.161c.008 2.098-.664 5.385 2.423 5.285 2.832-.09 2.318-3.344 2.327-5.467.063-13.284.034-26.567.036-40.597m-82.084 22.752c11.007.243 21.692.555 32.376.861 2.712.078 4.628.964 4.45 4.151-.656 11.812-1.562 23.57-6.45 34.6-6.414 14.472-17.482 22.333-33.299 22.964-14.69.587-25.943-5.74-33.701-18.155-5.4-8.645-7.897-18.258-8.07-28.351-.243-14.298-.193-28.605.008-42.905.128-9.135 1.874-18.027 5.742-26.394 6.63-14.347 17.831-22.052 33.655-22.459 16.499-.426 28.725 6.867 36.307 21.522 4.909 9.49 6.475 19.757 6.041 30.38-.088 2.167-.987 3.123-3.153 3.209-10.309.413-20.612.954-30.921 1.314-3.834.136-5.375-1.492-5.442-5.429-.05-2.981.159-5.964.153-8.947-.002-1.679-.268-3.467-2.482-3.431-2.268.038-2.298 1.882-2.298 3.541q-.015 26.861.008 53.726c0 1.511.01 3.278 2.084 3.306 2.105.031 2.622-1.7 2.641-3.39.05-4.972-.027-9.945-.054-14.919-.013-1.996-.218-4.071 2.406-5.194M602.013 735.76c-2.253-9.051-4.446-17.807-6.637-26.563-1.459 1.516-1.283 3.092-1.283 4.616.004 6.834-.034 13.67.107 20.505.071 3.517-1.497 4.964-4.916 4.932-6.339-.061-12.676.04-19.015-.017-4.52-.04-5.197-.704-5.211-5.22a7058 7058 0 0 1 .008-43.622c.076-20.247.229-40.495.327-60.74.011-2.48-.185-4.962-.136-7.437.046-2.23 1.224-3.327 3.564-3.31 8.079.059 16.158.076 24.234.008 2.616-.021 3.693 1.249 4.312 3.639 2.585 9.976 5.312 19.916 7.984 29.871.342 1.277.379 2.698 1.809 3.702 1.35-3.593.644-7.219.738-10.739a439 439 0 0 0 0-21.994c-.082-3.446 1.247-4.601 4.605-4.499 6.083.184 12.177.042 18.267.048 5.375.004 5.832.453 5.842 6.027.017 15.038.01 30.075.013 45.115.008 21.004.023 42.006.025 63.012 0 5.89-.379 6.257-6.408 6.247-7.704-.015-15.411-.057-23.115-.078-2.365-.008-4.563-.251-5.113-3.501m81.545-174.825c-1.101.002-1.849.004-2.595 0-7.096-.046-9.028 2.53-7.364 9.555.597 2.509 2.39 2.49 4.301 2.518 8.573.132 17.145.381 25.716.344 3.354-.015 4.738 1.197 4.708 4.561a1777 1777 0 0 0 .011 29.087c.027 3.409-1.318 4.941-4.878 4.926-20.136-.082-40.273-.023-60.409-.052-4.039-.004-5.044-.983-5.044-5.125q-.027-63.578.029-127.157c.002-4.272 1.023-5.247 5.348-5.253q29.645-.021 59.289.033c4.58.008 5.075.562 5.083 5.222q.027 13.611 0 27.222c-.013 4.811-.346 5.146-5.041 5.155-7.955.017-15.914.142-23.865-.055-3.509-.082-4.865.994-4.769 4.654.184 7.071.01 7.05 7.163 7.054 11.252.01 9.93-.937 9.993 9.991.038 6.712.013 13.426.004 20.138-.01 7.129-.015 7.129-7.679 7.18m-51.9 32.883c-.008 4.974-.046 9.573-.011 14.175.019 2.643-1.228 3.882-3.851 3.88-20.641-.01-41.281-.015-61.92.002-2.763.002-4.194-1.216-4.104-4.052.019-.62-.008-1.241-.008-1.864q-.011-62.291-.013-124.581c0-6.804.273-7.056 7.224-7.054 18.899.008 37.797.008 56.697.029 5.155.008 5.802.648 5.815 5.802.029 8.951.046 17.904 0 26.855-.023 4.41-.612 4.956-4.956 4.966-8.081.023-16.164.107-24.245-.034-3.146-.055-4.767.918-4.383 4.243.013.122.004.249.002.373-.115 7.066-.115 7.062 6.806 7.05 2.115-.002 4.228.046 6.343.027 2.65-.021 3.823 1.279 3.788 3.912-.124 9.691-.314 19.386-.22 29.077.033 3.144-1.184 4.331-4.106 4.237-2.977-.096-5.964-.142-8.938-.319-2.912-.174-4.299.853-4.368 4.016-.193 8.81-.293 8.808 8.496 8.81 7.211 0 14.424.086 21.633-.034 3.234-.055 4.442 1.258 4.35 4.446-.149 5.218-.034 10.445-.033 16.04m-94.565-31.173c-3.58.042-6.823.222-10.039.002-3.66-.252-4.74 1.363-4.738 4.819.006 12.921-.197 25.846-.304 38.768-.044 5.138-.449 5.622-5.454 5.643-8.703.036-17.403.046-26.104.008-4.255-.017-5.272-.992-5.278-5.326q-.071-63.394-.052-126.792c.002-4.507 1.013-5.419 5.559-5.425q30.02-.023 60.04.01c4.61.008 5.442.841 5.461 5.436.034 8.827.046 17.654-.004 26.479-.025 4.48-1.107 5.249-5.647 5.159-7.953-.151-15.908-.065-23.863-.157-2.746-.031-4.18 1.015-4.186 3.91-.027 11.688-.776 9.651 9.297 9.766 8.043.09 8.043.006 8.043 7.884q-.004 12.682.002 25.358c.002 1.912.057 3.836-2.734 4.457M408.845 601.26c-.01-40.407-.019-80.449-.025-120.489 0-5.867.528-6.419 6.352-6.421q29.473-.023 58.944 0c4.821.002 5.675.773 5.714 5.61.073 8.827-.034 17.656.027 26.484.025 3.444-1.407 4.934-4.939 4.876-8.079-.13-16.168.067-24.247-.088-3.459-.063-4.985 1.059-4.905 4.71.218 9.844-1.115 9.016 9.007 9.035 8.787.017 8.79.002 8.796 8.825.006 7.957.044 15.917-.013 23.874-.031 4.239-.838 4.972-5.05 5.022-1.989.021-3.981 0-5.97 0-6.72.006-6.733.019-6.739 6.563-.011 12.187-.011 24.371-.034 36.56-.01 5.335-.637 5.98-6.025 6.008-8.332.044-16.663.046-24.995.025-5.222-.015-5.857-.665-5.897-5.744-.011-1.493 0-2.987 0-4.849m-24.52 133.033c.606 3.375-.908 4.83-3.794 4.859-7.832.08-15.667.055-23.499.042-2.876-.008-3.735-1.884-4.035-4.379-.734-6.037-1.719-12.051-2.27-18.103-.287-3.138-1.507-4.322-4.654-4.312-6.257.017-6.276-.113-7.121 6.056-.738 5.412-1.568 10.816-2.088 16.25-.316 3.293-1.912 4.576-5.062 4.557-7.335-.046-14.674.054-22.01-.025-4.182-.042-4.905-1.09-4.121-5.331 6.813-36.738 13.649-73.47 20.39-110.221.679-3.7 2.365-5.303 6.234-5.217 8.077.184 16.164.01 24.245.023 5.222.013 5.601.352 6.576 5.431 7.047 36.686 14.087 73.374 21.208 110.37m-37.158-39.948c.231-5.098-.937-9.988-2.075-14.934-1.834 3.935-1.962 8.114-2.398 12.219-.413 3.88-.107 4.067 4.473 2.715m302.835-18.447c-9.156-13.54-10.793-27.431-2.497-41.577 7.366-12.565 21.606-18.233 36.399-15.172 13.927 2.884 24.756 14.671 26.777 29.146 1.228 8.794 1.098 8.901-7.892 9.167-5.339.155-10.678.4-16.007.753-2.767.184-4.553-.671-5.215-3.513a5.7 5.7 0 0 0-1.182-2.295c-.801-.952-1.843-1.895-3.201-1.216-1.444.727-1.669 2.04-1.126 3.515.927 2.528 2.666 4.465 4.574 6.263 3.631 3.425 7.737 6.238 11.835 9.054 4.974 3.417 9.116 7.62 12.613 12.548 10.955 15.437 4.993 38.73-6.372 49.169-13.238 12.162-43.941 11.89-53.533-12.116-2.669-6.681-3.593-13.642-4.224-20.713-.321-3.57 1.362-4.979 4.716-5.106 5.832-.218 11.67-.44 17.491-.845 2.943-.207 4.415.968 4.804 3.815.463 3.354 1.31 6.597 3.369 9.368.991 1.333 2.197 2.52 4.086 1.754 1.952-.792 2.247-2.497 2.09-4.341-.168-1.994-1.436-3.402-2.725-4.754-4.654-4.87-10.037-8.909-15.231-13.15-3.486-2.849-6.681-5.943-9.55-9.754m-399.974 17.703c3.582-.212 6.815-.302 10.02-.654 3.65-.4 5.656.855 5.974 4.723.224 2.734 1.187 5.339 2.624 7.704 1.111 1.828 2.692 3.257 4.914 2.235 2.457-1.128 2.09-3.496 1.459-5.534-.599-1.937-2.168-3.337-3.66-4.633a1297 1297 0 0 0-15.042-12.812c-10.018-8.425-16.128-18.877-16.151-32.215-.036-17.956 13.518-32.649 31.085-34.049 18.241-1.451 34.259 11.035 37.164 28.978 1.56 9.638 1.375 9.823-8.356 10.106-5.092.147-10.185.379-15.267.715-2.727.18-4.61-.537-5.253-3.446-.155-.7-.612-1.362-1.044-1.96-.82-1.134-1.815-2.341-3.362-1.616-1.679.786-1.614 2.32-1 3.855 1.197 2.975 3.255 5.301 5.744 7.207 3.849 2.945 7.821 5.729 11.709 8.626 9.676 7.222 16.489 16.3 17.235 28.754.79 13.215-4.597 28.498-17.137 35.434-12.879 7.125-25.958 6.513-38.032-1.828-9.722-6.712-13.097-17.285-14.141-28.473-.933-9.995-3.488-10.963 10.517-11.118m279.661 2.327c-.822 11.257-.195 8.825 7.94 9.186 5.719.252 11.42.208 17.141.031 4.184-.132 5.025.882 5.044 5.041.038 7.959-.096 15.919.055 23.874.069 3.631-1.275 5.249-4.981 5.194-11.808-.166-23.618-.237-35.43-.277-5.467-.019-10.932.107-16.401.191-3.373.052-4.794-1.34-4.784-4.941.098-36.806.052-73.617.063-110.425 0-4.318.606-4.884 5.037-4.886 17.038-.008 34.076.078 51.108-.048 3.471-.027 4.943.931 4.846 4.626-.212 7.953-.153 15.917-.029 23.874.048 3.037-1.069 4.259-4.136 4.207-6.959-.119-13.934.164-20.887-.113-4.073-.161-4.412 1.993-4.36 5.094.054 2.947-.006 5.641 4.226 5.184 1.966-.214 3.979.069 5.966-.019 3.245-.145 4.807 1.161 4.767 4.57a815 815 0 0 0 .023 23.503c.059 3.574-1.492 4.742-4.945 4.804-3.375.057-6.951-1.098-10.263 1.331m-120.684 43.327c-5.966-.008-11.559-.029-17.156-.021-3.413.004-4.821-1.583-4.813-5.069.073-36.929.082-73.86.01-110.789-.01-3.354 1.251-4.857 4.522-4.826 12.426.117 24.88-.7 37.273.409 15.319 1.367 26.668 12.726 28.781 28.211 2.304 16.896-6.154 31.236-21.262 36.231-3.53 1.165-7.123 1.056-10.71.941-3.331-.107-4.635 1.119-4.605 4.566.142 14.546.073 29.094.075 43.643.002 6.031-.543 6.595-6.525 6.697-1.738.029-3.478.008-5.589.008m15.099-88.328c-2.021-1.62-2.926-.727-2.989 1.459-.094 3.077-.061 6.159-.015 9.238.017 1.073-.076 2.473 1.474 2.522 1.293.042 1.935-1.094 2.155-2.197.706-3.524.847-7.064-.625-11.022m37.082 69.003c0-31.709-.011-63.046.01-94.382.006-6.593.057-6.574 6.614-6.664 6.59-.09 13.175-.31 19.761-.321 4.469-.008 5.199.792 5.201 5.238q.019 55.026-.002 110.05c-.004 4.618-.69 5.27-5.142 5.111-7.205-.26-14.397.56-21.62.164-3.815-.208-4.951-1.92-4.847-5.394.13-4.473.029-8.951.025-13.802M630.98 242.691c-.738-4.735-1.503-9.123-2.555-13.472-.426-1.757-.302-3.714-.099-5.544.31-2.817 9.919-11.305 12.198-10.686 3.689.998 7.538 1.574 10.808 3.497 1.17.084 1.541-.88 2.235-1.342 3.268-2.193 5.58-1.591 6.97 2.103 2.092 5.559 4.698 10.967 5.417 16.958.239 1.977-.924 3.272-1.805 4.966-4.465 8.584-11.405 2.618-17.057 3.614-.344.059-.709.008-1.08.008 1.878 5.404 4.339 7.249 9.968 7.538 2.249.111 4.978.073 5.165 2.987.191 2.916-1.799 4.817-4.7 5.387-2.836.56-5.681.287-8.498-.329-2.679-.587-4.547-.153-4.962 3.146-.226 1.799-1.189 3.509-1.847 5.247-.706 1.861-2.061 2.639-4.056 2.559-2.276-.084-2.998-1.683-3.253-3.431-.723-4.905-1.266-9.835-1.863-14.759-.327-2.706-.616-5.417-.987-8.448m18.654-10.466c2.329-1.39 8.242-.136 8.242-.136l.493-1.478-.985-1.209c-1.838-1.075-8.377 1.165-8.377 1.165l-.627 1.031Zm80.065-34.661c.568 1.3.792 2.327-.214 3.245-3.966-3.088-5.136-7.836-2.933-11.737.914-1.618 1.981-3.149 2.928-4.746 2.805-4.746 4.57-9.649 1.539-15.29 2.434-.447 3.042.933 3.662 2.224 3.044 6.337 1.476 14.678-3.91 19.187-2.549 2.134-2.516 4.289-1.071 7.117"/><path d="M741.255 188.524c-.302 2.905-1.189 5.073-3.735 6.335-2.232 1.098-1.587 3.725-2.616 5.614-2.784.094-3.025-2.218-3.608-3.918-.618-1.794-.103-3.756 1.658-4.499 3.725-1.583 6.075-4.01 5.895-8.703 2.473 1.425 2.407 3.163 2.406 5.171M537.7 769.376c.073 2.404-1.126 3.234-3.033 2.715-1.916-.522-1.794-1.95-1.231-3.562.6-1.713.958-3.511 1.497-5.565 2.566 1.503 1.339 4.412 2.767 6.412m-123.664-3.325c-3.404-1.31-1.731-3.339-1.318-6.043 2.782 2.027 4.375 3.461 1.318 6.043m57.174 3.478c.788.958 2.191 1.629.826 2.798-.853.729-1.838.396-2.656-.273-.931-.759-1.471-1.769-.799-2.861.776-1.254 1.65-.325 2.629.337m93.137-3.828c-2.941-.6-3.186-1.748-1.27-5.257 2.534 1.134 3.327 2.694 1.27 5.257m-309.996.654c-2.31-1.635-2.35-2.119-.757-5.691 3.258 1.52 3.471 2.704.757 5.691m419.928-3.918c.908 2.323.738 4.446.497 6.507-.207 1.78-1.044 3.549-3.046 3.668-1.947.115-3.086-1.356-3.576-3.169-.556-2.058-.6-4.151-.013-6.211.419-1.474 1.117-2.794 2.822-3.083 1.622-.273 2.495.746 3.316 2.287m-391.553-2.105c3.094 2.882 4.019 7.326 2.342 10.511-1.09 2.073-2.683 2.972-4.771 1.285-3.541-2.849-2.182-10.196 2.429-11.797m28.288 7.4c-.686 1.438-1.809 1.82-2.648.817-1.113-1.329-.346-2.666.734-3.824 1.543.346 1.562 1.671 1.914 3.008m384.393-5.719c.428-1.694 1.283-2.163 2.442-1.222 1.105.891 1.633 2.136 1.096 3.582-.354.948-.943 1.796-2.069 1.797-1.652 0-1.411-1.344-1.511-2.39-.046-.482.004-.971.042-1.767m-224.292.763c.662.929 1.84 1.579.694 2.712-.715.706-1.545.382-2.23-.266-.782-.734-1.237-1.713-.673-2.771.654-1.216 1.388-.316 2.209.325"/></svg>